# Blender v3.0.1 OBJ File: 'ground_tile.blend'
# www.blender.org
mtllib tile_wall_primitive_half.mtl
o Grid.001
v 6.928000 0.000001 -4.000000
v 6.158222 0.000001 -3.555556
v 6.928000 0.000001 -3.111111
v 6.928000 -0.000001 4.000000
v 6.158222 -0.000001 3.555556
v 5.388444 -0.000001 3.111111
v 4.618667 -0.000000 2.666667
v 3.848889 -0.000000 2.222222
v 6.928000 -0.000001 3.111111
v 6.928000 -0.000000 2.222222
v 6.158222 -0.000000 2.666667
v 6.928000 -0.000000 1.333333
v 6.158222 -0.000000 1.777778
v 6.928000 -0.000000 0.444444
v 6.158222 -0.000000 0.888889
v 6.928000 0.000000 -0.444445
v 6.158222 0.000000 0.000000
v 6.928000 0.000000 -1.333333
v 6.158222 0.000000 -0.888889
v 6.928000 0.000000 -2.222222
v 6.158222 0.000000 -1.777778
v 6.158222 0.000000 -2.666667
v 5.388444 -0.000000 2.222222
v 5.388444 -0.000000 1.333333
v 4.618667 -0.000000 1.777778
v 5.388444 -0.000000 0.444444
v 4.618667 -0.000000 0.888889
v 3.848889 -0.000000 1.333333
v 5.388444 0.000000 -0.444444
v 4.618667 0.000000 0.000000
v 3.848889 -0.000000 0.444445
v 5.388444 0.000000 -1.333333
v 4.618667 0.000000 -0.888889
v 3.848889 0.000000 -0.444444
v 5.388444 0.000000 -2.222222
v 4.618667 0.000000 -1.777778
v 3.848889 0.000000 -1.333333
v 5.388444 0.000001 -3.111111
v 4.618667 0.000000 -2.666667
v 3.848889 0.000000 -2.222222
v 5.388444 5.000000 3.111112
v 4.618667 5.000000 2.666668
v 6.928000 5.000000 3.111112
v 6.928000 5.000000 2.222223
v 6.158222 5.000000 2.666668
v 6.158222 5.000000 0.000001
v 6.158222 5.000000 -0.888888
v 5.388444 5.000000 2.222223
v 5.388444 5.000000 0.444445
v 4.618667 5.000000 1.777779
v 4.618667 5.000000 0.888890
v 3.848889 5.000000 1.333334
v 5.388444 5.000000 -0.444443
v 5.388444 5.000000 -1.333332
v 4.618667 5.000000 -0.888888
v 5.388444 5.000000 -2.222221
v 4.618667 5.000000 -1.777777
v 6.158222 5.000000 -3.555555
v 6.928000 5.000000 -3.111110
v 3.848889 5.000000 2.222223
v 6.928000 5.000000 1.333334
v 6.158222 5.000000 1.777779
v 6.928000 5.000000 -1.333332
v 6.928000 5.000000 -2.222221
v 6.158222 5.000000 -1.777777
v 6.158222 5.000000 -2.666666
v 4.618667 5.000000 0.000001
v 3.848889 5.000000 -0.444443
v 3.848889 5.000000 -1.333332
v 5.388444 5.000000 -3.111110
v 5.388444 5.000000 1.333334
v 3.848889 5.000000 0.444446
v 6.928000 5.000000 4.000001
v 6.158222 5.000000 3.555557
v 6.928000 5.000000 0.444445
v 6.158222 5.000000 0.888890
v 4.618667 5.000000 -2.666666
v 3.848889 5.000000 -2.222221
v 6.928000 5.000000 -0.444444
v 6.928000 5.000000 -3.999999
vt 0.000000 0.000000
vt 0.000000 0.000000
vt 0.000000 0.000000
vt 0.000000 0.000000
vt 0.000000 0.000000
vt 0.000000 0.000000
vt 0.000000 0.000000
vt 0.000000 0.000000
vt 0.000000 0.000000
vt 0.000000 0.000000
vt 0.000000 0.000000
vt 0.000000 0.000000
vt 0.000000 0.000000
vt 0.000000 0.000000
vt 0.000000 0.000000
vt 0.000000 0.000000
vt 0.000000 0.000000
vt 0.000000 0.000000
vt 0.000000 0.000000
vt 0.000000 0.000000
vt 0.000000 0.000000
vt 0.000000 0.000000
vt 0.000000 0.000000
vt 0.000000 0.000000
vt 0.000000 0.000000
vt 0.000000 0.000000
vt 0.000000 0.000000
vt 0.000000 0.000000
vt 0.000000 0.000000
vt 0.000000 0.000000
vt 0.000000 0.000000
vt 0.000000 0.000000
vt 0.000000 0.000000
vt 0.000000 0.000000
vt 0.000000 0.000000
vt 0.000000 0.000000
vt 0.000000 0.000000
vt 0.000000 0.000000
vt 0.000000 0.000000
vt 0.000000 0.000000
vt 0.000000 0.000000
vt 0.000000 0.000000
vt 0.000000 0.000000
vt 0.000000 0.000000
vt 0.000000 0.000000
vt 0.000000 0.000000
vt 0.000000 0.000000
vt 0.000000 0.000000
vt 0.000000 0.000000
vt 0.000000 0.000000
vt 0.000000 0.000000
vt 0.000000 0.000000
vt 0.000000 0.000000
vt 0.000000 0.000000
vt 0.000000 0.000000
vt 0.000000 0.000000
vt 0.000000 0.000000
vt 0.000000 0.000000
vt 0.000000 0.000000
vt 0.000000 0.000000
vt 0.000000 0.000000
vt 0.000000 0.000000
vt 0.000000 0.000000
vt 0.000000 0.000000
vt 0.000000 0.000000
vt 0.000000 0.000000
vt 0.000000 0.000000
vt 0.000000 0.000000
vt 0.000000 0.000000
vt 0.000000 0.000000
vt 0.000000 0.000000
vt 0.000000 0.000000
vt 0.000000 0.000000
vt 0.000000 0.000000
vt 0.000000 0.000000
vt 0.000000 0.000000
vt 0.000000 0.000000
vt 0.000000 0.000000
vt 0.000000 0.000000
vt 0.000000 0.000000
vn 0.4160 -0.5547 -0.7206
vn 0.7071 -0.7071 -0.0000
vn -0.3536 -0.7071 -0.6124
vn 0.4160 -0.5547 0.7206
vn -0.3536 -0.7071 0.6124
vn -0.0000 -1.0000 -0.0000
vn -0.6862 -0.6100 0.3962
vn -0.7071 -0.7071 -0.0000
vn -0.6862 -0.6100 -0.3962
vn 0.4160 0.5547 -0.7206
vn -0.3536 0.7071 -0.6124
vn 0.7071 0.7071 0.0000
vn -0.3536 0.7071 0.6124
vn 0.4160 0.5547 0.7206
vn 0.0000 1.0000 0.0000
vn -0.6862 0.6100 0.3962
vn -0.7071 0.7071 0.0000
vn -0.6862 0.6100 -0.3962
usemtl None
s 1
f 1/1/1 3/2/2 2/3/3
f 9/4/2 4/5/4 5/6/5
f 10/7/2 9/4/2 11/8/6
f 12/9/2 10/7/2 13/10/6
f 14/11/2 12/9/2 15/12/6
f 16/13/2 14/11/2 17/14/6
f 18/15/2 16/13/2 19/16/6
f 20/17/2 18/15/2 21/18/6
f 3/2/2 20/17/2 22/19/6
f 9/4/2 5/6/5 11/8/6
f 11/8/6 5/6/5 6/20/5
f 10/7/2 11/8/6 13/10/6
f 13/10/6 11/8/6 23/21/6
f 11/8/6 6/20/5 23/21/6
f 23/21/6 6/20/5 7/22/5
f 12/9/2 13/10/6 15/12/6
f 15/12/6 13/10/6 24/23/6
f 13/10/6 23/21/6 24/23/6
f 24/23/6 23/21/6 25/24/6
f 23/21/6 7/22/5 25/24/6
f 25/24/6 7/22/5 8/25/7
f 14/11/2 15/12/6 17/14/6
f 17/14/6 15/12/6 26/26/6
f 15/12/6 24/23/6 26/26/6
f 26/26/6 24/23/6 27/27/6
f 24/23/6 25/24/6 27/27/6
f 27/27/6 25/24/6 28/28/8
f 25/24/6 8/25/7 28/28/8
f 16/13/2 17/14/6 19/16/6
f 19/16/6 17/14/6 29/29/6
f 17/14/6 26/26/6 29/29/6
f 29/29/6 26/26/6 30/30/6
f 26/26/6 27/27/6 30/30/6
f 30/30/6 27/27/6 31/31/8
f 27/27/6 28/28/8 31/31/8
f 18/15/2 19/16/6 21/18/6
f 21/18/6 19/16/6 32/32/6
f 19/16/6 29/29/6 32/32/6
f 32/32/6 29/29/6 33/33/6
f 29/29/6 30/30/6 33/33/6
f 33/33/6 30/30/6 34/34/8
f 30/30/6 31/31/8 34/34/8
f 20/17/2 21/18/6 22/19/6
f 22/19/6 21/18/6 35/35/6
f 21/18/6 32/32/6 35/35/6
f 35/35/6 32/32/6 36/36/6
f 32/32/6 33/33/6 36/36/6
f 36/36/6 33/33/6 37/37/8
f 33/33/6 34/34/8 37/37/8
f 3/2/2 22/19/6 2/3/3
f 2/3/3 22/19/6 38/38/3
f 22/19/6 35/35/6 38/38/3
f 38/38/3 35/35/6 39/39/3
f 35/35/6 36/36/6 39/39/3
f 39/39/3 36/36/6 40/40/9
f 36/36/6 37/37/8 40/40/9
f 80/41/10 58/42/11 59/43/12
f 43/44/12 74/45/13 73/46/14
f 44/47/12 45/48/15 43/44/12
f 61/49/12 62/50/15 44/47/12
f 75/51/12 76/52/15 61/49/12
f 79/53/12 46/54/15 75/51/12
f 63/55/12 47/56/15 79/53/12
f 64/57/12 65/58/15 63/55/12
f 59/43/12 66/59/15 64/57/12
f 43/44/12 45/48/15 74/45/13
f 45/48/15 41/60/13 74/45/13
f 44/47/12 62/50/15 45/48/15
f 62/50/15 48/61/15 45/48/15
f 45/48/15 48/61/15 41/60/13
f 48/61/15 42/62/13 41/60/13
f 61/49/12 76/52/15 62/50/15
f 76/52/15 71/63/15 62/50/15
f 62/50/15 71/63/15 48/61/15
f 71/63/15 50/64/15 48/61/15
f 48/61/15 50/64/15 42/62/13
f 50/64/15 60/65/16 42/62/13
f 75/51/12 46/54/15 76/52/15
f 46/54/15 49/66/15 76/52/15
f 76/52/15 49/66/15 71/63/15
f 49/66/15 51/67/15 71/63/15
f 71/63/15 51/67/15 50/64/15
f 51/67/15 52/68/17 50/64/15
f 50/64/15 52/68/17 60/65/16
f 79/53/12 47/56/15 46/54/15
f 47/56/15 53/69/15 46/54/15
f 46/54/15 53/69/15 49/66/15
f 53/69/15 67/70/15 49/66/15
f 49/66/15 67/70/15 51/67/15
f 67/70/15 72/71/17 51/67/15
f 51/67/15 72/71/17 52/68/17
f 63/55/12 65/58/15 47/56/15
f 65/58/15 54/72/15 47/56/15
f 47/56/15 54/72/15 53/69/15
f 54/72/15 55/73/15 53/69/15
f 53/69/15 55/73/15 67/70/15
f 55/73/15 68/74/17 67/70/15
f 67/70/15 68/74/17 72/71/17
f 64/57/12 66/59/15 65/58/15
f 66/59/15 56/75/15 65/58/15
f 65/58/15 56/75/15 54/72/15
f 56/75/15 57/76/15 54/72/15
f 54/72/15 57/76/15 55/73/15
f 57/76/15 69/77/17 55/73/15
f 55/73/15 69/77/17 68/74/17
f 59/43/12 58/42/11 66/59/15
f 58/42/11 70/78/11 66/59/15
f 66/59/15 70/78/11 56/75/15
f 70/78/11 77/79/11 56/75/15
f 56/75/15 77/79/11 57/76/15
f 77/79/11 78/80/18 57/76/15
f 57/76/15 78/80/18 69/77/17
f 12/9/2 14/11/2 75/51/12 61/49/12
f 20/17/2 3/2/2 59/43/12 64/57/12
f 1/1/1 2/3/3 58/42/11 80/41/10
f 18/15/2 20/17/2 64/57/12 63/55/12
f 3/2/2 1/1/1 80/41/10 59/43/12
f 39/39/3 40/40/9 78/80/18 77/79/11
f 40/40/9 37/37/8 69/77/17 78/80/18
f 37/37/8 34/34/8 68/74/17 69/77/17
f 8/25/7 7/22/5 42/62/13 60/65/16
f 31/31/8 28/28/8 52/68/17 72/71/17
f 14/11/2 16/13/2 79/53/12 75/51/12
f 34/34/8 31/31/8 72/71/17 68/74/17
f 5/6/5 4/5/4 73/46/14 74/45/13
f 7/22/5 6/20/5 41/60/13 42/62/13
f 16/13/2 18/15/2 63/55/12 79/53/12
f 38/38/3 39/39/3 77/79/11 70/78/11
f 2/3/3 38/38/3 70/78/11 58/42/11
f 4/5/4 9/4/2 43/44/12 73/46/14
f 28/28/8 8/25/7 60/65/16 52/68/17
f 9/4/2 10/7/2 44/47/12 43/44/12
f 6/20/5 5/6/5 74/45/13 41/60/13
f 10/7/2 12/9/2 61/49/12 44/47/12
