# Blender 3.5.0
# www.blender.org
mtllib wall_big_strait_1.mtl
o Big_Wall_1
v 9.526279 -0.113438 5.500000
v 9.526279 -0.098956 3.107250
v 9.526279 -0.098956 1.860875
v 9.526279 -0.098956 -0.631876
v 9.526279 -0.098956 -4.371000
v 5.158222 0.000000 0.000000
v 5.158222 -0.000000 -1.777778
v 9.526279 -0.113438 -5.500000
v 9.526279 -0.098956 4.353625
v 9.526279 -0.098956 0.614500
v 9.526279 -0.098956 -1.878249
v 9.526279 -0.098956 -3.124625
v 4.943800 0.000000 3.555556
v 5.158222 -0.000000 -3.555556
v 4.326167 0.000000 2.666667
v 4.326167 0.000000 1.777778
v 4.943800 0.000000 0.888889
v 5.158222 -0.000000 -0.888889
v 5.158222 -0.000000 -2.666667
v 9.526279 7.901050 -4.371000
v 9.526279 7.901051 -5.500000
v 9.526279 7.901051 5.500000
v 9.526279 7.901049 4.353624
v 9.526279 7.901049 3.107249
v 9.526279 7.901049 1.860874
v 9.526279 7.901049 0.614499
v 9.526279 7.901049 -0.631876
v 9.526279 7.901049 -1.878250
v 9.526279 7.901050 -3.124625
v 8.769304 7.901045 5.382088
v 8.787532 7.901043 -5.294189
v 8.861262 7.952086 3.782183
v 8.903783 7.392962 2.565626
v 9.071793 7.612840 1.127579
v 9.009027 7.950498 -0.057416
v 8.974580 7.833715 -1.467962
v 8.846659 7.744856 -2.176566
v 8.919350 7.966609 -4.109482
v 9.526279 0.615152 -5.500000
v 9.526279 1.343742 -5.500000
v 9.526279 2.072332 -5.500000
v 9.526279 2.800922 -5.500000
v 9.526279 3.529511 -5.500000
v 9.526279 4.258101 -5.500000
v 9.526279 4.986691 -5.500000
v 9.526279 5.715281 -5.500000
v 9.526279 6.443871 -5.500000
v 9.526279 7.172461 -5.500000
v 9.526279 0.628318 4.353625
v 9.526279 1.355591 4.353625
v 9.526279 2.082864 4.353625
v 9.526279 2.810137 4.353625
v 9.526279 3.537410 4.353624
v 9.526279 4.264683 4.353624
v 9.526279 4.991956 4.353624
v 9.526279 5.719229 4.353624
v 9.526279 6.446502 4.353624
v 9.526279 7.173775 4.353624
v 9.526279 0.628317 0.614500
v 9.526279 1.355590 0.614499
v 9.526279 2.082864 0.614499
v 9.526279 2.810137 0.614499
v 9.526279 3.537410 0.614499
v 9.526279 4.264683 0.614499
v 9.526279 4.991956 0.614499
v 9.526279 5.719230 0.614499
v 9.526279 6.446503 0.614499
v 9.526279 7.173776 0.614499
v 9.526279 0.628317 -1.878249
v 9.526279 1.355590 -1.878250
v 9.526279 2.082864 -1.878250
v 9.526279 2.810137 -1.878250
v 9.526279 3.537410 -1.878250
v 9.526279 4.264683 -1.878250
v 9.526279 4.991956 -1.878250
v 9.526279 5.719230 -1.878250
v 9.526279 6.446503 -1.878250
v 9.526279 7.173776 -1.878250
v 9.526279 0.628317 -3.124625
v 9.526279 1.355590 -3.124625
v 9.526279 2.082864 -3.124625
v 9.526279 2.810137 -3.124625
v 9.526279 3.537410 -3.124625
v 9.526279 4.264684 -3.124625
v 9.526279 4.991957 -3.124625
v 9.526279 5.719231 -3.124625
v 9.526279 6.446504 -3.124625
v 9.526279 7.173777 -3.124625
v 5.364830 0.760356 3.727632
v 5.906825 1.335681 4.204039
v 6.137313 2.243017 4.009295
v 6.607652 2.334654 4.147975
v 6.839191 3.575902 4.321170
v 7.119638 4.317213 4.541127
v 7.523146 4.962513 4.723396
v 7.694968 5.958144 5.156760
v 8.150843 6.178011 4.683512
v 8.467182 6.830436 4.975537
v 4.755206 0.616791 1.916257
v 4.840789 1.546886 2.020343
v 5.253865 1.885180 2.026850
v 6.606068 3.079948 2.108894
v 6.192317 3.725952 1.684670
v 7.085286 4.374691 2.341087
v 7.607646 4.987384 2.034780
v 8.190301 5.306038 2.382108
v 8.097301 6.422011 2.429977
v 8.473282 7.179390 2.455075
v 4.788535 0.555019 1.211168
v 5.159988 1.405412 1.110744
v 5.580266 2.036140 0.918056
v 5.643833 2.858651 1.025078
v 5.889623 3.315447 0.994346
v 7.193675 4.385066 0.689032
v 7.777913 5.323847 1.301852
v 7.760961 5.656899 0.986064
v 8.194707 6.649220 1.275769
v 8.491684 7.122768 1.142604
v 5.182096 0.664391 -1.044290
v 5.790589 1.223071 -1.105819
v 6.139746 2.154946 -0.988612
v 6.676365 3.221920 -0.723386
v 6.763886 3.583969 -1.055332
v 7.323965 4.078101 -1.511071
v 7.850703 5.304271 -1.046863
v 8.163678 5.508682 -0.907052
v 8.320381 6.417513 -0.949756
v 8.159705 7.352539 -1.239703
v 5.268596 0.586680 -2.465241
v 5.821820 1.442353 -2.728559
v 6.532400 2.121433 -2.791606
v 6.686504 2.562934 -2.938047
v 6.738878 3.713908 -2.769572
v 7.369693 4.040878 -3.586730
v 7.825908 4.985794 -3.413148
v 7.614871 5.692330 -3.490832
v 8.096137 6.093601 -3.199828
v 8.474727 7.104590 -3.653244
v 5.207720 0.821115 -3.672106
v 5.800089 1.445498 -3.878851
v 6.057060 1.976593 -4.320616
v 6.467806 2.571058 -4.375973
v 7.163069 3.770747 -3.922710
v 7.455870 4.313348 -4.580578
v 7.661811 5.053742 -5.049662
v 8.200823 5.559656 -4.701441
v 7.871756 6.668291 -5.035170
v 8.485597 7.289735 -5.182094
v 4.670784 1.021332 2.668517
v 5.531731 1.639306 3.029096
v 6.408028 2.492760 2.936498
v 6.712005 3.104655 2.855763
v 6.816814 3.269858 2.731266
v 7.339875 4.417832 3.273078
v 7.522340 4.813336 3.400874
v 7.613577 5.683921 3.605922
v 8.093911 6.904422 3.527151
v 8.156326 7.198870 3.627435
v 9.526279 0.628317 1.860875
v 9.526279 1.355591 1.860875
v 9.526279 2.082864 1.860875
v 9.526279 2.810137 1.860874
v 9.526279 3.537410 1.860874
v 9.526279 4.264683 1.860874
v 9.526279 4.991956 1.860874
v 9.526279 5.719230 1.860874
v 9.526279 6.446503 1.860874
v 9.526279 7.173776 1.860874
v 9.526279 0.628317 -4.371000
v 9.526279 1.355590 -4.371000
v 9.526279 2.082864 -4.371000
v 9.526279 2.810137 -4.371000
v 9.526279 3.537410 -4.371000
v 9.526279 4.264683 -4.371000
v 9.526279 4.991957 -4.371000
v 9.526279 5.719230 -4.371000
v 9.526279 6.446503 -4.371000
v 9.526279 7.173776 -4.371000
v 9.526279 0.615152 5.500000
v 9.526279 1.343742 5.500000
v 9.526279 2.072332 5.500000
v 9.526279 2.800922 5.500000
v 9.526279 3.529511 5.500000
v 9.526279 4.258101 5.500000
v 9.526279 4.986691 5.500000
v 9.526279 5.715281 5.500000
v 9.526279 6.443871 5.500000
v 9.526279 7.172461 5.500000
v 9.526279 0.628318 3.107250
v 9.526279 1.355591 3.107250
v 9.526279 2.082864 3.107249
v 9.526279 2.810137 3.107249
v 9.526279 3.537410 3.107249
v 9.526279 4.264683 3.107249
v 9.526279 4.991956 3.107249
v 9.526279 5.719229 3.107249
v 9.526279 6.446502 3.107249
v 9.526279 7.173776 3.107249
v 9.526279 0.628317 -0.631876
v 9.526279 1.355590 -0.631876
v 9.526279 2.082864 -0.631876
v 9.526279 2.810137 -0.631876
v 9.526279 3.537410 -0.631876
v 9.526279 4.264683 -0.631876
v 9.526279 4.991956 -0.631876
v 9.526279 5.719230 -0.631876
v 9.526279 6.446503 -0.631876
v 9.526279 7.173776 -0.631876
v 5.306313 0.932663 -1.412191
v 5.568415 1.230900 -1.840198
v 6.199381 2.392610 -1.864683
v 6.574565 2.456308 -2.220618
v 6.837944 3.578069 -2.063332
v 7.657811 4.542152 -2.033497
v 7.526846 5.057665 -2.220389
v 7.579514 5.561120 -2.483660
v 7.627031 6.212339 -2.288640
v 8.473503 7.365573 -2.649090
v 5.882296 0.264243 0.068471
v 5.816593 1.297265 0.078446
v 5.771422 2.343365 0.052752
v 5.705307 2.823721 0.035037
v 6.243730 4.104838 -0.077690
v 6.608263 4.409969 0.036662
v 7.232503 5.034093 -0.094292
v 7.811645 5.906978 -0.023830
v 8.127403 6.292975 0.047080
v 8.482496 6.768526 -0.070952
vn 1.0000 -0.0000 -0.0000
vn -0.5720 0.8202 0.0099
vn -0.3019 -0.1616 0.9395
vn -0.5739 0.8150 -0.0795
vn -0.5859 0.7630 -0.2730
vn -0.7459 0.6296 0.2174
vn -0.8844 0.4485 0.1295
vn -0.8809 0.4695 0.0600
vn -0.8337 0.5518 0.0212
vn -0.0000 1.0000 -0.0000
vn 0.0765 0.9971 -0.0000
vn -0.6323 0.7747 -0.0000
vn -0.5355 0.8445 -0.0000
vn 0.0952 0.9955 -0.0000
vn -0.1211 0.9926 -0.0000
vn -0.2240 0.9746 -0.0000
vn 0.1074 0.9942 -0.0000
vn 0.0469 0.9983 0.0345
vn -0.3430 0.8489 -0.4021
vn -0.5946 0.8023 0.0532
vn -0.2717 0.9216 0.2770
vn 0.0035 0.9966 -0.0826
vn -0.1857 0.9785 -0.0892
vn -0.0730 0.9911 0.1110
vn 0.0799 0.9947 -0.0639
vn -0.8346 0.5502 -0.0284
vn -0.2833 -0.0164 -0.9589
vn -0.3994 -0.0561 -0.9150
vn -0.3928 0.0315 -0.9191
vn -0.3518 -0.2451 -0.9034
vn -0.3349 0.0646 -0.9400
vn -0.4175 0.3479 -0.8394
vn -0.4819 -0.3126 -0.8186
vn -0.3255 -0.2459 -0.9130
vn -0.3449 0.3913 -0.8532
vn -0.3843 -0.2312 -0.8938
vn -0.2764 0.0211 -0.9608
vn -0.9851 0.1719 -0.0115
vn -0.8448 0.5191 -0.1298
vn -0.7839 0.5584 -0.2716
vn -0.7861 0.5567 -0.2684
vn -0.9907 0.1356 0.0141
vn -0.6667 0.7453 -0.0063
vn -0.9750 0.2167 -0.0491
vn -0.9735 -0.1704 -0.1526
vn -0.8293 0.5158 -0.2147
vn -0.8753 0.3859 -0.2914
vn -0.5985 0.6433 -0.4775
vn -0.7671 0.0941 -0.6346
vn -0.9082 0.1524 -0.3898
vn -0.9910 0.0072 -0.1339
vn -0.9120 0.4087 -0.0343
vn -0.5495 0.7247 0.4159
vn -0.7866 0.4940 0.3704
vn -0.8787 0.4449 0.1733
vn -0.8766 0.4809 -0.0163
vn -0.8330 0.5378 -0.1304
vn -0.9930 0.1103 0.0412
vn -0.7735 0.6274 0.0903
vn -0.7547 0.6475 0.1058
vn -0.8495 0.4974 0.1758
vn -0.9456 0.3185 -0.0670
vn -0.7446 0.6632 -0.0753
vn -0.9234 0.3761 0.0760
vn -0.9461 0.2887 -0.1467
vn -0.9899 0.0969 -0.1035
vn -0.8106 0.5581 0.1775
vn -0.7786 0.2797 0.5617
vn -0.7174 0.5119 0.4727
vn -0.8211 0.5442 0.1721
vn -0.6667 0.7170 0.2034
vn -0.9726 0.2323 0.0097
vn -0.9023 0.4211 -0.0927
vn -0.8578 0.5074 -0.0822
vn -0.9906 0.1368 0.0082
vn -0.8056 0.5763 0.1374
vn -0.9298 0.2670 0.2533
vn -0.7070 0.6039 0.3680
vn -0.8914 0.3145 0.3264
vn -0.9731 0.1573 -0.1682
vn -0.7769 0.3227 -0.5406
vn -0.7502 0.1093 -0.6521
vn -0.6626 0.5489 -0.5096
vn -0.7404 0.5341 -0.4082
vn -0.6675 0.6302 -0.3967
vn -0.8919 0.3321 -0.3069
vn -0.9792 0.1678 0.1136
vn -0.8886 0.4327 -0.1524
vn -0.8628 0.4789 0.1620
vn -0.6245 0.7006 0.3450
vn -0.7056 0.6466 0.2899
vn -0.9293 -0.1169 0.3504
vn -0.8242 0.3558 0.4405
vn -0.8083 0.5815 0.0927
vn -0.7898 0.5618 -0.2461
vn -0.9440 0.1526 -0.2925
vn -0.8924 0.3974 -0.2138
vn -0.9905 0.1163 -0.0731
vn -0.6074 0.7562 0.2434
vn -0.8975 0.4134 0.1536
vn -0.7773 0.6169 -0.1234
vn -0.9730 0.2233 -0.0580
vn -0.7243 0.6893 0.0133
vn -0.9757 0.2182 0.0222
vn -0.8434 0.4783 0.2447
vn -0.9145 0.0810 0.3965
vn -0.9346 0.3397 0.1053
vn -0.3911 0.0042 0.9203
vn -0.3635 -0.1827 0.9135
vn -0.3615 0.1603 0.9185
vn -0.4127 0.0833 0.9071
vn -0.4093 -0.0321 0.9118
vn -0.3873 -0.0637 0.9197
vn -0.3663 -0.0159 0.9304
vn -0.2851 -0.2068 0.9359
vn -0.2906 0.5354 0.7930
vn -0.4656 -0.0797 0.8814
vn -0.8639 0.3458 -0.3662
vn -0.9411 0.2421 -0.2359
vn -0.7584 0.6061 -0.2397
vn -0.8085 0.5471 0.2169
vn -0.8268 0.1022 0.5531
vn -0.6054 0.7914 -0.0850
vn -0.8131 0.5820 -0.0104
vn -0.7299 0.6196 0.2888
vn -0.9785 0.1329 0.1575
vn -0.8777 0.4791 -0.0081
vt 0.000000 0.000000
vt 0.000000 0.000000
vt 0.000000 0.000000
vt 0.000000 0.000000
vt 0.000000 0.000000
vt 0.000000 0.000000
vt 0.000000 0.000000
vt 0.000000 0.000000
vt 0.000000 0.000000
vt 0.000000 0.000000
vt 0.000000 0.000000
vt 0.000000 0.000000
vt 0.000000 0.000000
vt 0.000000 0.000000
vt 0.000000 0.000000
vt 0.000000 0.000000
vt 0.000000 0.000000
vt 0.000000 0.000000
vt 0.000000 0.000000
vt 0.000000 0.000000
vt 0.000000 0.000000
vt 0.000000 0.000000
vt 0.000000 0.000000
vt 0.000000 0.000000
vt 0.000000 0.000000
vt 0.000000 0.000000
vt 0.000000 0.000000
vt 0.000000 0.000000
vt 0.000000 0.000000
vt 0.000000 0.000000
vt 0.000000 0.000000
vt 0.000000 0.000000
vt 0.000000 0.000000
vt 0.000000 0.000000
vt 0.000000 0.000000
vt 0.000000 0.000000
vt 0.000000 0.000000
vt 0.000000 0.000000
vt 0.000000 0.000000
vt 0.000000 0.000000
vt 0.000000 0.000000
vt 0.000000 0.000000
vt 0.000000 0.000000
vt 0.000000 0.000000
vt 0.000000 0.000000
vt 0.000000 0.000000
vt 0.000000 0.000000
vt 0.000000 0.000000
vt 0.000000 0.000000
vt 0.000000 0.000000
vt 0.000000 0.000000
vt 0.000000 0.000000
vt 0.000000 0.000000
vt 0.000000 0.000000
vt 0.000000 0.000000
vt 0.000000 0.000000
vt 0.000000 0.000000
vt 0.000000 0.000000
vt 0.000000 0.000000
vt 0.000000 0.000000
vt 0.000000 0.000000
vt 0.000000 0.000000
vt 0.000000 0.000000
vt 0.000000 0.000000
vt 0.000000 0.000000
vt 0.000000 0.000000
vt 0.000000 0.000000
vt 0.000000 0.000000
vt 0.000000 0.000000
vt 0.000000 0.000000
vt 0.000000 0.000000
vt 0.000000 0.000000
vt 0.000000 0.000000
vt 0.000000 0.000000
vt 0.000000 0.000000
vt 0.000000 0.000000
vt 0.000000 0.000000
vt 0.000000 0.000000
vt 0.000000 0.000000
vt 0.000000 0.000000
vt 0.000000 0.000000
vt 0.000000 0.000000
vt 0.000000 0.000000
vt 0.000000 0.000000
vt 0.000000 0.000000
vt 0.000000 0.000000
vt 0.000000 0.000000
vt 0.000000 0.000000
vt 0.000000 0.000000
vt 0.000000 0.000000
vt 0.000000 0.000000
vt 0.000000 0.000000
vt 0.000000 0.000000
vt 0.000000 0.000000
vt 0.000000 0.000000
vt 0.000000 0.000000
vt 0.000000 0.000000
vt 0.000000 0.000000
vt 0.000000 0.000000
vt 0.000000 0.000000
vt 0.000000 0.000000
vt 0.000000 0.000000
vt 0.000000 0.000000
vt 0.000000 0.000000
vt 0.000000 0.000000
vt 0.000000 0.000000
vt 0.000000 0.000000
vt 0.000000 0.000000
vt 0.000000 0.000000
vt 0.000000 0.000000
vt 0.000000 0.000000
vt 0.000000 0.000000
vt 0.000000 0.000000
vt 0.000000 0.000000
vt 0.000000 0.000000
vt 0.000000 0.000000
vt 0.000000 0.000000
vt 0.000000 0.000000
vt 0.000000 0.000000
vt 0.000000 0.000000
vt 0.000000 0.000000
vt 0.000000 0.000000
vt 0.000000 0.000000
vt 0.000000 0.000000
vt 0.000000 0.000000
vt 0.000000 0.000000
vt 0.000000 0.000000
vt 0.000000 0.000000
vt 0.000000 0.000000
vt 0.000000 0.000000
vt 0.000000 0.000000
vt 0.000000 0.000000
vt 0.000000 0.000000
vt 0.000000 0.000000
vt 0.000000 0.000000
vt 0.000000 0.000000
vt 0.000000 0.000000
vt 0.000000 0.000000
vt 0.000000 0.000000
vt 0.000000 0.000000
vt 0.000000 0.000000
vt 0.000000 0.000000
vt 0.000000 0.000000
vt 0.000000 0.000000
vt 0.000000 0.000000
vt 0.000000 0.000000
vt 0.000000 0.000000
vt 0.000000 0.000000
vt 0.000000 0.000000
vt 0.000000 0.000000
vt 0.000000 0.000000
vt 0.000000 0.000000
vt 0.000000 0.000000
vt 0.000000 0.000000
vt 0.000000 0.000000
vt 0.000000 0.000000
vt 0.000000 0.000000
vt 0.000000 0.000000
vt 0.000000 0.000000
vt 0.000000 0.000000
vt 0.000000 0.000000
vt 0.000000 0.000000
vt 0.000000 0.000000
vt 0.000000 0.000000
vt 0.000000 0.000000
vt 0.000000 0.000000
vt 0.000000 0.000000
vt 0.000000 0.000000
vt 0.000000 0.000000
vt 0.000000 0.000000
vt 0.000000 0.000000
vt 0.000000 0.000000
vt 0.000000 0.000000
vt 0.000000 0.000000
vt 0.000000 0.000000
vt 0.000000 0.000000
vt 0.000000 0.000000
vt 0.000000 0.000000
vt 0.000000 0.000000
vt 0.000000 0.000000
vt 0.000000 0.000000
vt 0.000000 0.000000
vt 0.000000 0.000000
vt 0.000000 0.000000
vt 0.000000 0.000000
vt 0.000000 0.000000
vt 0.000000 0.000000
vt 0.000000 0.000000
vt 0.000000 0.000000
vt 0.000000 0.000000
vt 0.000000 0.000000
vt 0.000000 0.000000
vt 0.000000 0.000000
vt 0.000000 0.000000
vt 0.000000 0.000000
vt 0.000000 0.000000
vt 0.000000 0.000000
vt 0.000000 0.000000
vt 0.000000 0.000000
vt 0.000000 0.000000
vt 0.000000 0.000000
vt 0.000000 0.000000
vt 0.000000 0.000000
vt 0.000000 0.000000
vt 0.000000 0.000000
vt 0.000000 0.000000
vt 0.000000 0.000000
vt 0.000000 0.000000
vt 0.000000 0.000000
vt 0.000000 0.000000
vt 0.000000 0.000000
vt 0.000000 0.000000
vt 0.000000 0.000000
vt 0.000000 0.000000
vt 0.000000 0.000000
vt 0.000000 0.000000
vt 0.000000 0.000000
vt 0.000000 0.000000
vt 0.000000 0.000000
vt 0.000000 0.000000
vt 0.000000 0.000000
vt 0.000000 0.000000
vt 0.000000 0.000000
vt 0.000000 0.000000
vt 0.000000 0.000000
vt 0.000000 0.000000
vt 0.000000 0.000000
vt 0.000000 0.000000
s 0
usemtl None.017
f 58/58/1 198/198/1 24/24/1 23/23/1
f 118/118/2 108/108/2 33/33/2 34/34/2
f 98/98/3 188/188/3 22/22/3 30/30/3
f 188/188/1 58/58/1 23/23/1 22/22/1
f 88/88/1 178/178/1 20/20/1 29/29/1
f 218/218/4 128/128/4 36/36/4 37/37/4
f 178/178/1 48/48/1 21/21/1 20/20/1
f 108/108/5 158/158/5 32/32/5 33/33/5
f 78/78/1 88/88/1 29/29/1 28/28/1
f 208/208/1 78/78/1 28/28/1 27/27/1
f 128/128/6 228/228/6 35/35/6 36/36/6
f 158/158/7 98/98/7 30/30/7 32/32/7
f 68/68/1 208/208/1 27/27/1 26/26/1
f 148/148/8 138/138/8 38/38/8 31/31/8
f 168/168/1 68/68/1 26/26/1 25/25/1
f 228/228/9 118/118/9 34/34/9 35/35/9
f 198/198/1 168/168/1 25/25/1 24/24/1
f 21/21/10 31/31/10 20/20/10
f 23/23/10 30/30/10 22/22/10
f 24/24/11 32/32/11 23/23/11
f 25/25/12 33/33/12 24/24/12
f 26/26/13 34/34/13 25/25/13
f 27/27/14 35/35/14 26/26/14
f 28/28/15 36/36/15 27/27/15
f 29/29/16 37/37/16 28/28/16
f 20/20/17 38/38/17 29/29/17
f 23/23/18 32/32/18 30/30/18
f 24/24/19 33/33/19 32/32/19
f 25/25/20 34/34/20 33/33/20
f 26/26/21 35/35/21 34/34/21
f 27/27/22 36/36/22 35/35/22
f 28/28/23 37/37/23 36/36/23
f 29/29/24 38/38/24 37/37/24
f 20/20/25 31/31/25 38/38/25
f 138/138/26 218/218/26 37/37/26 38/38/26
f 48/48/27 148/148/27 31/31/27 21/21/27
f 8/8/28 14/14/28 139/139/28 39/39/28
f 39/39/29 139/139/29 140/140/29 40/40/29
f 40/40/30 140/140/30 141/141/30 41/41/30
f 41/41/31 141/141/31 142/142/31 42/42/31
f 42/42/32 142/142/32 143/143/32 43/43/32
f 43/43/33 143/143/33 144/144/33 44/44/33
f 44/44/34 144/144/34 145/145/34 45/45/34
f 45/45/35 145/145/35 146/146/35 46/46/35
f 46/46/36 146/146/36 147/147/36 47/47/36
f 47/47/37 147/147/37 148/148/37 48/48/37
f 19/19/38 7/7/38 209/209/38 129/129/38
f 129/129/39 209/209/39 210/210/39 130/130/39
f 130/130/40 210/210/40 211/211/40 131/131/40
f 131/131/41 211/211/41 212/212/41 132/132/41
f 132/132/42 212/212/42 213/213/42 133/133/42
f 133/133/43 213/213/43 214/214/43 134/134/43
f 134/134/44 214/214/44 215/215/44 135/135/44
f 135/135/45 215/215/45 216/216/45 136/136/45
f 136/136/46 216/216/46 217/217/46 137/137/46
f 137/137/47 217/217/47 218/218/47 138/138/47
f 2/2/1 3/3/1 159/159/1 189/189/1
f 189/189/1 159/159/1 160/160/1 190/190/1
f 190/190/1 160/160/1 161/161/1 191/191/1
f 191/191/1 161/161/1 162/162/1 192/192/1
f 192/192/1 162/162/1 163/163/1 193/193/1
f 193/193/1 163/163/1 164/164/1 194/194/1
f 194/194/1 164/164/1 165/165/1 195/195/1
f 195/195/1 165/165/1 166/166/1 196/196/1
f 196/196/1 166/166/1 167/167/1 197/197/1
f 197/197/1 167/167/1 168/168/1 198/198/1
f 6/6/48 17/17/48 109/109/48 219/219/48
f 219/219/49 109/109/49 110/110/49 220/220/49
f 220/220/50 110/110/50 111/111/50 221/221/50
f 221/221/51 111/111/51 112/112/51 222/222/51
f 222/222/52 112/112/52 113/113/52 223/223/52
f 223/223/53 113/113/53 114/114/53 224/224/53
f 224/224/54 114/114/54 115/115/54 225/225/54
f 225/225/55 115/115/55 116/116/55 226/226/55
f 226/226/56 116/116/56 117/117/56 227/227/56
f 227/227/57 117/117/57 118/118/57 228/228/57
f 3/3/1 10/10/1 59/59/1 159/159/1
f 159/159/1 59/59/1 60/60/1 160/160/1
f 160/160/1 60/60/1 61/61/1 161/161/1
f 161/161/1 61/61/1 62/62/1 162/162/1
f 162/162/1 62/62/1 63/63/1 163/163/1
f 163/163/1 63/63/1 64/64/1 164/164/1
f 164/164/1 64/64/1 65/65/1 165/165/1
f 165/165/1 65/65/1 66/66/1 166/166/1
f 166/166/1 66/66/1 67/67/1 167/167/1
f 167/167/1 67/67/1 68/68/1 168/168/1
f 14/14/58 19/19/58 129/129/58 139/139/58
f 139/139/59 129/129/59 130/130/59 140/140/59
f 140/140/60 130/130/60 131/131/60 141/141/60
f 141/141/61 131/131/61 132/132/61 142/142/61
f 142/142/62 132/132/62 133/133/62 143/143/62
f 143/143/63 133/133/63 134/134/63 144/144/63
f 144/144/64 134/134/64 135/135/64 145/145/64
f 145/145/65 135/135/65 136/136/65 146/146/65
f 146/146/66 136/136/66 137/137/66 147/147/66
f 147/147/67 137/137/67 138/138/67 148/148/67
f 10/10/1 4/4/1 199/199/1 59/59/1
f 59/59/1 199/199/1 200/200/1 60/60/1
f 60/60/1 200/200/1 201/201/1 61/61/1
f 61/61/1 201/201/1 202/202/1 62/62/1
f 62/62/1 202/202/1 203/203/1 63/63/1
f 63/63/1 203/203/1 204/204/1 64/64/1
f 64/64/1 204/204/1 205/205/1 65/65/1
f 65/65/1 205/205/1 206/206/1 66/66/1
f 66/66/1 206/206/1 207/207/1 67/67/1
f 67/67/1 207/207/1 208/208/1 68/68/1
f 15/15/68 13/13/68 89/89/68 149/149/68
f 149/149/69 89/89/69 90/90/69 150/150/69
f 150/150/70 90/90/70 91/91/70 151/151/70
f 151/151/71 91/91/71 92/92/71 152/152/71
f 152/152/72 92/92/72 93/93/72 153/153/72
f 153/153/73 93/93/73 94/94/73 154/154/73
f 154/154/74 94/94/74 95/95/74 155/155/74
f 155/155/75 95/95/75 96/96/75 156/156/75
f 156/156/76 96/96/76 97/97/76 157/157/76
f 157/157/77 97/97/77 98/98/77 158/158/77
f 18/18/78 6/6/78 219/219/78 119/119/78
f 119/119/79 219/219/79 220/220/79 120/120/79
f 120/120/80 220/220/80 221/221/80 121/121/80
f 121/121/81 221/221/81 222/222/81 122/122/81
f 122/122/82 222/222/82 223/223/82 123/123/82
f 123/123/83 223/223/83 224/224/83 124/124/83
f 124/124/84 224/224/84 225/225/84 125/125/84
f 125/125/85 225/225/85 226/226/85 126/126/85
f 126/126/86 226/226/86 227/227/86 127/127/86
f 127/127/87 227/227/87 228/228/87 128/128/87
f 4/4/1 11/11/1 69/69/1 199/199/1
f 199/199/1 69/69/1 70/70/1 200/200/1
f 200/200/1 70/70/1 71/71/1 201/201/1
f 201/201/1 71/71/1 72/72/1 202/202/1
f 202/202/1 72/72/1 73/73/1 203/203/1
f 203/203/1 73/73/1 74/74/1 204/204/1
f 204/204/1 74/74/1 75/75/1 205/205/1
f 205/205/1 75/75/1 76/76/1 206/206/1
f 206/206/1 76/76/1 77/77/1 207/207/1
f 207/207/1 77/77/1 78/78/1 208/208/1
f 11/11/1 12/12/1 79/79/1 69/69/1
f 69/69/1 79/79/1 80/80/1 70/70/1
f 70/70/1 80/80/1 81/81/1 71/71/1
f 71/71/1 81/81/1 82/82/1 72/72/1
f 72/72/1 82/82/1 83/83/1 73/73/1
f 73/73/1 83/83/1 84/84/1 74/74/1
f 74/74/1 84/84/1 85/85/1 75/75/1
f 75/75/1 85/85/1 86/86/1 76/76/1
f 76/76/1 86/86/1 87/87/1 77/77/1
f 77/77/1 87/87/1 88/88/1 78/78/1
f 16/16/88 15/15/88 149/149/88 99/99/88
f 99/99/89 149/149/89 150/150/89 100/100/89
f 100/100/90 150/150/90 151/151/90 101/101/90
f 101/101/91 151/151/91 152/152/91 102/102/91
f 102/102/92 152/152/92 153/153/92 103/103/92
f 103/103/93 153/153/93 154/154/93 104/104/93
f 104/104/94 154/154/94 155/155/94 105/105/94
f 105/105/95 155/155/95 156/156/95 106/106/95
f 106/106/96 156/156/96 157/157/96 107/107/96
f 107/107/97 157/157/97 158/158/97 108/108/97
f 5/5/1 8/8/1 39/39/1 169/169/1
f 169/169/1 39/39/1 40/40/1 170/170/1
f 170/170/1 40/40/1 41/41/1 171/171/1
f 171/171/1 41/41/1 42/42/1 172/172/1
f 172/172/1 42/42/1 43/43/1 173/173/1
f 173/173/1 43/43/1 44/44/1 174/174/1
f 174/174/1 44/44/1 45/45/1 175/175/1
f 175/175/1 45/45/1 46/46/1 176/176/1
f 176/176/1 46/46/1 47/47/1 177/177/1
f 177/177/1 47/47/1 48/48/1 178/178/1
f 7/7/98 18/18/98 119/119/98 209/209/98
f 209/209/99 119/119/99 120/120/99 210/210/99
f 210/210/100 120/120/100 121/121/100 211/211/100
f 211/211/101 121/121/101 122/122/101 212/212/101
f 212/212/102 122/122/102 123/123/102 213/213/102
f 213/213/103 123/123/103 124/124/103 214/214/103
f 214/214/104 124/124/104 125/125/104 215/215/104
f 215/215/105 125/125/105 126/126/105 216/216/105
f 216/216/106 126/126/106 127/127/106 217/217/106
f 217/217/107 127/127/107 128/128/107 218/218/107
f 12/12/1 5/5/1 169/169/1 79/79/1
f 79/79/1 169/169/1 170/170/1 80/80/1
f 80/80/1 170/170/1 171/171/1 81/81/1
f 81/81/1 171/171/1 172/172/1 82/82/1
f 82/82/1 172/172/1 173/173/1 83/83/1
f 83/83/1 173/173/1 174/174/1 84/84/1
f 84/84/1 174/174/1 175/175/1 85/85/1
f 85/85/1 175/175/1 176/176/1 86/86/1
f 86/86/1 176/176/1 177/177/1 87/87/1
f 87/87/1 177/177/1 178/178/1 88/88/1
f 1/1/1 9/9/1 49/49/1 179/179/1
f 179/179/1 49/49/1 50/50/1 180/180/1
f 180/180/1 50/50/1 51/51/1 181/181/1
f 181/181/1 51/51/1 52/52/1 182/182/1
f 182/182/1 52/52/1 53/53/1 183/183/1
f 183/183/1 53/53/1 54/54/1 184/184/1
f 184/184/1 54/54/1 55/55/1 185/185/1
f 185/185/1 55/55/1 56/56/1 186/186/1
f 186/186/1 56/56/1 57/57/1 187/187/1
f 187/187/1 57/57/1 58/58/1 188/188/1
f 13/13/108 1/1/108 179/179/108 89/89/108
f 89/89/109 179/179/109 180/180/109 90/90/109
f 90/90/110 180/180/110 181/181/110 91/91/110
f 91/91/111 181/181/111 182/182/111 92/92/111
f 92/92/112 182/182/112 183/183/112 93/93/112
f 93/93/113 183/183/113 184/184/113 94/94/113
f 94/94/114 184/184/114 185/185/114 95/95/114
f 95/95/115 185/185/115 186/186/115 96/96/115
f 96/96/116 186/186/116 187/187/116 97/97/116
f 97/97/117 187/187/117 188/188/117 98/98/117
f 17/17/118 16/16/118 99/99/118 109/109/118
f 109/109/119 99/99/119 100/100/119 110/110/119
f 110/110/120 100/100/120 101/101/120 111/111/120
f 111/111/121 101/101/121 102/102/121 112/112/121
f 112/112/122 102/102/122 103/103/122 113/113/122
f 113/113/123 103/103/123 104/104/123 114/114/123
f 114/114/124 104/104/124 105/105/124 115/115/124
f 115/115/125 105/105/125 106/106/125 116/116/125
f 116/116/126 106/106/126 107/107/126 117/117/126
f 117/117/127 107/107/127 108/108/127 118/118/127
f 9/9/1 2/2/1 189/189/1 49/49/1
f 49/49/1 189/189/1 190/190/1 50/50/1
f 50/50/1 190/190/1 191/191/1 51/51/1
f 51/51/1 191/191/1 192/192/1 52/52/1
f 52/52/1 192/192/1 193/193/1 53/53/1
f 53/53/1 193/193/1 194/194/1 54/54/1
f 54/54/1 194/194/1 195/195/1 55/55/1
f 55/55/1 195/195/1 196/196/1 56/56/1
f 56/56/1 196/196/1 197/197/1 57/57/1
f 57/57/1 197/197/1 198/198/1 58/58/1
