# Blender 3.5.0
# www.blender.org
mtllib wall_full_1.mtl
o L1
v 5.192517 0.000000 3.459285
v 1.739568 4.964909 1.269736
v 0.022997 -0.000000 -0.000865
v 6.928000 -0.000000 -4.000000
v 2.477595 4.819399 1.941939
v 4.168192 4.734285 2.592675
v 5.131763 4.754620 2.954292
v 5.986748 4.834908 3.605653
v 2.334148 4.833081 -1.152101
v 2.715729 4.884392 -1.519826
v 0.255383 0.000000 0.620668
v 0.212312 -0.000000 -0.763820
v 4.058057 4.776153 -2.334783
v 6.928000 5.000000 -4.000000
v 4.945312 4.742247 -2.990641
v 5.779803 4.703245 -3.377072
v 0.873591 -0.000000 -1.266146
v 1.724185 -0.000000 -1.768473
v 2.574778 -0.000000 -2.270799
v 4.119408 -0.000000 -2.773125
v 5.192517 -0.000000 -3.275452
v 1.717286 4.829180 1.136905
v 1.248853 5.010644 -0.719389
v 1.028680 4.994809 0.013699
v 6.043111 -0.000000 -3.777778
v 6.543111 4.943978 -3.777779
v 6.543111 5.000000 3.997778
v 6.043111 0.000000 3.997778
v 6.928000 0.000000 4.000000
v 6.928000 5.000000 4.000000
v 4.134442 0.000000 2.920791
v 2.574778 0.000000 2.726006
v 1.724185 0.000000 1.843805
v 0.873591 0.000000 1.305311
v 6.928000 -0.000000 -3.200000
v 6.928000 -0.000000 -2.400000
v 6.928000 -0.000000 -1.600000
v 6.928000 -0.000000 -0.800000
v 6.928000 0.000000 0.000000
v 6.928000 0.000000 0.800000
v 6.928000 0.000000 1.600000
v 6.928000 0.000000 2.400000
v 6.928000 0.000000 3.200000
v 6.928000 5.000000 -3.200001
v 6.928000 5.000000 -2.400001
v 6.928000 5.000000 -1.600001
v 6.928000 5.000000 -0.800000
v 6.928000 5.000000 -0.000000
v 6.928000 5.000000 0.800000
v 6.928000 5.000000 1.600000
v 6.928000 5.000000 2.400000
v 6.928000 5.000000 3.200000
v 6.928000 0.714285 -4.000000
v 6.928000 1.428571 -4.000000
v 6.928000 2.142857 -4.000000
v 6.928000 2.857143 -4.000000
v 6.928000 3.571429 -4.000000
v 6.928000 4.285714 -4.000000
v 2.635885 0.759266 2.684479
v 2.850593 1.282871 2.709283
v 2.870014 2.339813 2.865316
v 2.985367 3.099371 2.812533
v 2.962327 3.641200 2.746493
v 3.396273 4.209861 2.518153
v 0.334282 0.899670 0.728009
v 0.188482 1.286368 0.715747
v 0.717324 2.050342 1.051543
v 0.630561 2.812434 0.644400
v 0.641127 3.599308 0.899128
v 0.610240 4.588335 0.704483
v 2.702790 0.743490 -2.321900
v 2.778279 1.430892 -2.295013
v 3.129932 2.255096 -2.470566
v 3.042600 2.878553 -2.379725
v 3.473222 3.653028 -2.225452
v 3.803867 4.295653 -2.277229
v 1.995915 0.903992 1.880302
v 1.813297 1.376731 2.112005
v 1.868113 1.939419 1.712492
v 2.225647 2.918547 1.951396
v 2.273326 3.444427 1.774024
v 2.415034 4.326963 1.887374
v 4.503446 0.751332 -2.689173
v 4.227777 1.575340 -2.669758
v 4.114881 2.142777 -2.773224
v 4.071738 2.617333 -2.978452
v 4.722054 3.576526 -2.773125
v 4.785396 4.444911 -3.111410
v 0.244434 0.524306 -0.815414
v 0.329722 1.591874 -0.934420
v 0.499186 2.175154 -0.927947
v 0.799225 2.740425 -0.751494
v 0.888233 3.661901 -0.969872
v 0.877581 4.281727 -0.856412
v 0.740292 0.737246 -1.382966
v 0.992129 1.641815 -1.349859
v 1.313907 2.058621 -1.533257
v 1.238006 3.041931 -1.039033
v 1.282142 3.600402 -1.225942
v 1.652144 3.924682 -1.240106
v 5.297521 0.969272 3.217688
v 5.347405 1.482318 3.461840
v 5.635320 2.072156 3.430748
v 5.538231 2.850994 3.464221
v 5.671729 3.693967 3.659270
v 5.699506 4.493373 3.588664
v 3.720574 0.590973 2.629887
v 3.888167 1.426036 2.973506
v 4.218240 2.125115 3.187337
v 3.896899 2.985401 2.839271
v 4.924445 3.431315 2.960045
v 4.571843 4.212173 2.952390
v 5.983508 0.505935 -3.712564
v 6.124004 1.289179 -3.893977
v 6.069474 1.910530 -3.763830
v 6.167927 2.697953 -3.641839
v 6.394131 3.792477 -3.489762
v 6.332788 4.211346 -3.795772
v 6.077032 0.861825 3.958410
v 6.312567 1.471398 3.883925
v 6.280597 1.840405 4.004566
v 6.535947 2.846073 4.002107
v 6.525273 3.424038 3.701208
v 6.643339 4.427102 3.950234
v 0.969242 0.550812 1.229372
v 1.069087 1.715121 1.428849
v 1.245799 2.152011 1.275486
v 1.039925 2.697305 1.209745
v 1.487746 3.550991 1.293004
v 1.809322 4.412966 1.428775
v 5.620031 0.887640 -3.331293
v 5.348246 1.302892 -3.128712
v 5.169729 2.455005 -3.323069
v 5.479861 2.952904 -3.330470
v 5.456764 3.441811 -3.313348
v 5.742598 4.319666 -3.301712
v 6.928000 0.714286 4.000000
v 6.928000 1.428572 4.000000
v 6.928000 2.142857 4.000000
v 6.928000 2.857143 4.000000
v 6.928000 3.571429 4.000000
v 6.928000 4.285715 4.000000
v 0.075404 0.361285 0.050859
v 0.294712 1.359609 -0.027272
v 0.543223 2.138625 0.063243
v 0.339019 2.746618 0.015286
v 0.383989 3.689345 -0.032980
v 0.863020 4.570505 0.048652
v 1.944773 0.838764 -1.726638
v 2.037290 1.539531 -1.946051
v 2.045506 2.075257 -1.388316
v 2.301721 3.060240 -1.911110
v 2.100377 3.739284 -1.932510
v 2.509994 4.335773 -1.793267
v 6.928000 4.285714 -3.200000
v 6.928000 3.571428 -3.200000
v 6.928000 2.857142 -3.200000
v 6.928000 2.142857 -3.200000
v 6.928000 1.428571 -3.200000
v 6.928000 0.714285 -3.200000
v 6.928000 4.285714 -2.400000
v 6.928000 3.571428 -2.400000
v 6.928000 2.857142 -2.400000
v 6.928000 2.142857 -2.400000
v 6.928000 1.428571 -2.400000
v 6.928000 0.714285 -2.400000
v 6.928000 4.285714 -1.600001
v 6.928000 3.571428 -1.600000
v 6.928000 2.857142 -1.600000
v 6.928000 2.142857 -1.600000
v 6.928000 1.428571 -1.600000
v 6.928000 0.714286 -1.600000
v 6.928000 4.285714 -0.800000
v 6.928000 3.571428 -0.800000
v 6.928000 2.857143 -0.800000
v 6.928000 2.142857 -0.800000
v 6.928000 1.428571 -0.800000
v 6.928000 0.714286 -0.800000
v 6.928000 4.285714 -0.000000
v 6.928000 3.571428 -0.000000
v 6.928000 2.857143 -0.000000
v 6.928000 2.142857 -0.000000
v 6.928000 1.428571 -0.000000
v 6.928000 0.714286 -0.000000
v 6.928000 4.285714 0.800000
v 6.928000 3.571428 0.800000
v 6.928000 2.857143 0.800000
v 6.928000 2.142857 0.800000
v 6.928000 1.428571 0.800000
v 6.928000 0.714286 0.800000
v 6.928000 4.285714 1.600000
v 6.928000 3.571429 1.600000
v 6.928000 2.857143 1.600000
v 6.928000 2.142857 1.600000
v 6.928000 1.428571 1.600000
v 6.928000 0.714286 1.600000
v 6.928000 4.285714 2.400000
v 6.928000 3.571429 2.400000
v 6.928000 2.857143 2.400000
v 6.928000 2.142857 2.400000
v 6.928000 1.428572 2.400000
v 6.928000 0.714286 2.400000
v 6.928000 4.285715 3.200000
v 6.928000 3.571429 3.200000
v 6.928000 2.857143 3.200000
v 6.928000 2.142857 3.200000
v 6.928000 1.428572 3.200000
v 6.928000 0.714286 3.200000
vn -0.0865 -0.0435 0.9953
vn -0.5344 0.4976 0.6832
vn -0.5011 0.8436 0.1928
vn -0.8819 0.4281 -0.1977
vn -0.6348 0.0726 0.7692
vn -0.3970 0.3550 -0.8464
vn -0.5140 0.4134 0.7516
vn -0.5923 0.3734 -0.7140
vn -0.2908 0.1472 -0.9454
vn -0.5551 0.0806 -0.8278
vn 1.0000 -0.0000 -0.0000
vn -0.3300 0.3491 0.8770
vn -0.6252 0.5243 -0.5781
vn -0.4079 0.2223 0.8855
vn -0.3028 0.3183 -0.8983
vn -0.4058 0.0703 -0.9112
vn -0.4503 0.0291 0.8924
vn -0.0215 0.9720 0.2340
vn -0.0830 0.9826 0.1660
vn -0.0525 0.9915 0.1194
vn -0.2150 0.9711 -0.1037
vn -0.1389 0.9899 0.0271
vn -0.0000 1.0000 -0.0000
vn -0.0197 0.9895 -0.1435
vn -0.0129 0.9958 0.0904
vn 0.0006 0.9999 0.0104
vn -0.0251 0.9933 0.1125
vn -0.0234 0.9864 -0.1627
vn -0.0804 0.9839 -0.1596
vn -0.0498 0.9929 -0.1079
vn -0.2611 0.9620 0.0806
vn -0.1415 0.9811 -0.1318
vn -0.1440 0.9896 -0.0000
vn -0.6021 0.1655 0.7811
vn -0.5538 0.0150 0.8325
vn -0.5186 0.0588 0.8530
vn -0.5566 0.0349 0.8300
vn -0.2846 0.0957 0.9539
vn -0.2321 -0.0772 0.9696
vn -0.2722 0.0381 -0.9615
vn -0.1996 -0.0994 -0.9748
vn -0.2192 0.0858 -0.9719
vn -0.3640 0.0991 -0.9261
vn -0.5474 0.1379 -0.8254
vn -0.5409 -0.2465 -0.8042
vn -0.6559 -0.1513 -0.7395
vn -0.6554 0.0793 -0.7511
vn -0.5597 0.1301 -0.8184
vn -0.5710 0.3945 -0.7200
vn -0.4987 -0.1869 -0.8464
vn -0.3970 0.2442 -0.8848
vn -0.7345 0.1490 0.6620
vn -0.6460 -0.1707 0.7440
vn -0.6569 0.1414 0.7406
vn -0.7650 0.1408 0.6285
vn -0.7905 0.1534 0.5930
vn -0.6646 0.3172 0.6766
vn -0.3796 -0.0230 -0.9249
vn -0.3854 -0.0244 -0.9224
vn -0.2045 0.4186 -0.8848
vn -0.3757 0.0210 -0.9265
vn -0.6187 -0.2062 -0.7581
vn -0.6015 0.5835 -0.5456
vn -0.0369 0.2298 0.9725
vn -0.0983 -0.2346 0.9671
vn -0.2401 -0.1541 0.9584
vn -0.1166 0.2246 0.9675
vn -0.0803 0.0265 0.9964
vn -0.1874 0.1802 0.9656
vn -0.5503 0.1508 -0.8212
vn -0.7192 -0.0666 -0.6916
vn -0.6042 -0.1080 -0.7895
vn -0.3404 0.1903 -0.9208
vn -0.2921 0.1386 -0.9463
vn -0.3789 -0.1420 -0.9145
vn -0.4612 0.2430 -0.8534
vn -0.4431 -0.0353 -0.8958
vn -0.4068 -0.2224 -0.8860
vn -0.3134 -0.1199 -0.9420
vn -0.3904 0.3027 -0.8695
vn -0.4063 -0.0889 -0.9094
vn -0.2504 0.1069 -0.9622
vn -0.2226 0.0004 -0.9749
vn -0.2634 -0.1460 -0.9536
vn -0.4263 -0.1437 -0.8931
vn -0.3636 0.4011 -0.8408
vn -0.5229 -0.0827 -0.8484
vn -0.6762 0.0655 0.7338
vn -0.6178 -0.1123 0.7783
vn -0.5980 0.2349 0.7663
vn -0.6372 0.1320 0.7593
vn -0.6065 0.0057 0.7951
vn -0.4686 0.1015 0.8776
vn -0.5550 0.1174 -0.8235
vn -0.5373 -0.0517 -0.8418
vn -0.5845 0.3591 -0.7276
vn -0.6416 -0.1354 -0.7550
vn -0.3205 0.1362 -0.9374
vn -0.2629 0.2233 -0.9386
vn -0.5497 0.1610 0.8197
vn -0.5837 -0.2343 0.7774
vn -0.4114 0.5123 0.7539
vn -0.5455 -0.0408 0.8371
vn -0.5214 0.2431 0.8179
vn -0.5567 0.0293 0.8302
vn -0.9743 0.0930 -0.2050
vn -0.9870 0.1376 -0.0829
vn -0.9559 0.2900 0.0456
vn -0.9682 0.1040 -0.2274
vn -0.8703 -0.0079 -0.4925
vn -0.8963 0.3196 -0.3073
vn -0.9413 0.0560 0.3328
vn -0.9944 0.0585 0.0877
vn -0.8987 0.4319 0.0755
vn -0.9553 -0.1120 0.2735
vn -0.9434 -0.0093 0.3314
vn -0.9722 0.2338 0.0133
vn -0.4100 0.2209 0.8850
vn -0.2685 -0.3483 0.8981
vn -0.2465 -0.0192 0.9690
vn -0.2647 0.1162 0.9573
vn -0.4815 0.2263 0.8467
vn -0.5640 -0.0752 0.8224
vn -0.0231 0.0255 0.9994
vn -0.0972 0.0731 0.9926
vn -0.0645 -0.1123 0.9916
vn 0.0063 0.0005 1.0000
vn -0.3781 0.2070 0.9023
vn -0.4494 -0.0979 0.8880
vt 0.000000 0.000000
vt 0.000000 0.000000
vt 0.000000 0.000000
vt 0.000000 0.000000
vt 0.000000 0.000000
vt 0.000000 0.000000
vt 0.000000 0.000000
vt 0.000000 0.000000
vt 0.000000 0.000000
vt 0.000000 0.000000
vt 0.000000 0.000000
vt 0.000000 0.000000
vt 0.000000 0.000000
vt 0.000000 0.000000
vt 0.000000 0.000000
vt 0.000000 0.000000
vt 0.000000 0.000000
vt 0.000000 0.000000
vt 0.000000 0.000000
vt 0.000000 0.000000
vt 0.000000 0.000000
vt 0.000000 0.000000
vt 0.000000 0.000000
vt 0.000000 0.000000
vt 0.000000 0.000000
vt 0.000000 0.000000
vt 0.000000 0.000000
vt 0.000000 0.000000
vt 0.000000 0.000000
vt 0.000000 0.000000
vt 0.000000 0.000000
vt 0.000000 0.000000
vt 0.000000 0.000000
vt 0.000000 0.000000
vt 0.000000 0.000000
vt 0.000000 0.000000
vt 0.000000 0.000000
vt 0.000000 0.000000
vt 0.000000 0.000000
vt 0.000000 0.000000
vt 0.000000 0.000000
vt 0.000000 0.000000
vt 0.000000 0.000000
vt 0.000000 0.000000
vt 0.000000 0.000000
vt 0.000000 0.000000
vt 0.000000 0.000000
vt 0.000000 0.000000
vt 0.000000 0.000000
vt 0.000000 0.000000
vt 0.000000 0.000000
vt 0.000000 0.000000
vt 0.000000 0.000000
vt 0.000000 0.000000
vt 0.000000 0.000000
vt 0.000000 0.000000
vt 0.000000 0.000000
vt 0.000000 0.000000
vt 0.000000 0.000000
vt 0.000000 0.000000
vt 0.000000 0.000000
vt 0.000000 0.000000
vt 0.000000 0.000000
vt 0.000000 0.000000
vt 0.000000 0.000000
vt 0.000000 0.000000
vt 0.000000 0.000000
vt 0.000000 0.000000
vt 0.000000 0.000000
vt 0.000000 0.000000
vt 0.000000 0.000000
vt 0.000000 0.000000
vt 0.000000 0.000000
vt 0.000000 0.000000
vt 0.000000 0.000000
vt 0.000000 0.000000
vt 0.000000 0.000000
vt 0.000000 0.000000
vt 0.000000 0.000000
vt 0.000000 0.000000
vt 0.000000 0.000000
vt 0.000000 0.000000
vt 0.000000 0.000000
vt 0.000000 0.000000
vt 0.000000 0.000000
vt 0.000000 0.000000
vt 0.000000 0.000000
vt 0.000000 0.000000
vt 0.000000 0.000000
vt 0.000000 0.000000
vt 0.000000 0.000000
vt 0.000000 0.000000
vt 0.000000 0.000000
vt 0.000000 0.000000
vt 0.000000 0.000000
vt 0.000000 0.000000
vt 0.000000 0.000000
vt 0.000000 0.000000
vt 0.000000 0.000000
vt 0.000000 0.000000
vt 0.000000 0.000000
vt 0.000000 0.000000
vt 0.000000 0.000000
vt 0.000000 0.000000
vt 0.000000 0.000000
vt 0.000000 0.000000
vt 0.000000 0.000000
vt 0.000000 0.000000
vt 0.000000 0.000000
vt 0.000000 0.000000
vt 0.000000 0.000000
vt 0.000000 0.000000
vt 0.000000 0.000000
vt 0.000000 0.000000
vt 0.000000 0.000000
vt 0.000000 0.000000
vt 0.000000 0.000000
vt 0.000000 0.000000
vt 0.000000 0.000000
vt 0.000000 0.000000
vt 0.000000 0.000000
vt 0.000000 0.000000
vt 0.000000 0.000000
vt 0.000000 0.000000
vt 0.000000 0.000000
vt 0.000000 0.000000
vt 0.000000 0.000000
vt 0.000000 0.000000
vt 0.000000 0.000000
vt 0.000000 0.000000
vt 0.000000 0.000000
vt 0.000000 0.000000
vt 0.000000 0.000000
vt 0.000000 0.000000
vt 0.000000 0.000000
vt 0.000000 0.000000
vt 0.000000 0.000000
vt 0.000000 0.000000
vt 0.000000 0.000000
vt 0.000000 0.000000
vt 0.000000 0.000000
vt 0.000000 0.000000
vt 0.000000 0.000000
vt 0.000000 0.000000
vt 0.000000 0.000000
vt 0.000000 0.000000
vt 0.000000 0.000000
vt 0.000000 0.000000
vt 0.000000 0.000000
vt 0.000000 0.000000
vt 0.000000 0.000000
vt 0.000000 0.000000
vt 0.000000 0.000000
vt 0.000000 0.000000
vt 0.000000 0.000000
vt 0.000000 0.000000
vt 0.000000 0.000000
vt 0.000000 0.000000
vt 0.000000 0.000000
vt 0.000000 0.000000
vt 0.000000 0.000000
vt 0.000000 0.000000
vt 0.000000 0.000000
vt 0.000000 0.000000
vt 0.000000 0.000000
vt 0.000000 0.000000
vt 0.000000 0.000000
vt 0.000000 0.000000
vt 0.000000 0.000000
vt 0.000000 0.000000
vt 0.000000 0.000000
vt 0.000000 0.000000
vt 0.000000 0.000000
vt 0.000000 0.000000
vt 0.000000 0.000000
vt 0.000000 0.000000
vt 0.000000 0.000000
vt 0.000000 0.000000
vt 0.000000 0.000000
vt 0.000000 0.000000
vt 0.000000 0.000000
vt 0.000000 0.000000
vt 0.000000 0.000000
vt 0.000000 0.000000
vt 0.000000 0.000000
vt 0.000000 0.000000
vt 0.000000 0.000000
vt 0.000000 0.000000
vt 0.000000 0.000000
vt 0.000000 0.000000
vt 0.000000 0.000000
vt 0.000000 0.000000
vt 0.000000 0.000000
vt 0.000000 0.000000
vt 0.000000 0.000000
vt 0.000000 0.000000
vt 0.000000 0.000000
vt 0.000000 0.000000
vt 0.000000 0.000000
vt 0.000000 0.000000
vt 0.000000 0.000000
vt 0.000000 0.000000
vt 0.000000 0.000000
vt 0.000000 0.000000
vt 0.000000 0.000000
vt 0.000000 0.000000
vt 0.000000 0.000000
vt 0.000000 0.000000
s 0
usemtl None.003
f 124/124/1 142/142/1 30/30/1 27/27/1
f 112/112/2 106/106/2 8/8/2 7/7/2
f 148/148/3 70/70/3 22/22/3 24/24/3
f 94/94/4 148/148/4 24/24/4 23/23/4
f 130/130/5 82/82/5 5/5/5 2/2/5
f 76/76/6 154/154/6 10/10/6 13/13/6
f 70/70/7 130/130/7 2/2/7 22/22/7
f 88/88/8 76/76/8 13/13/8 15/15/8
f 136/136/9 88/88/9 15/15/9 16/16/9
f 118/118/10 136/136/10 16/16/10 26/26/10
f 208/208/11 137/137/11 29/29/11 43/43/11
f 64/64/12 112/112/12 7/7/12 6/6/12
f 154/154/13 100/100/13 9/9/13 10/10/13
f 82/82/14 64/64/14 6/6/14 5/5/14
f 100/100/15 94/94/15 23/23/15 9/9/15
f 58/58/16 118/118/16 26/26/16 14/14/16
f 106/106/17 124/124/17 27/27/17 8/8/17
f 53/53/11 160/160/11 35/35/11 4/4/11
f 160/160/11 166/166/11 36/36/11 35/35/11
f 166/166/11 172/172/11 37/37/11 36/36/11
f 172/172/11 178/178/11 38/38/11 37/37/11
f 178/178/11 184/184/11 39/39/11 38/38/11
f 184/184/11 190/190/11 40/40/11 39/39/11
f 190/190/11 196/196/11 41/41/11 40/40/11
f 196/196/11 202/202/11 42/42/11 41/41/11
f 202/202/11 208/208/11 43/43/11 42/42/11
f 2/2/18 5/5/18 50/50/18
f 6/6/19 7/7/19 51/51/19
f 51/51/20 50/50/20 5/5/20 6/6/20
f 8/8/21 27/27/21 52/52/21
f 52/52/22 51/51/22 7/7/22 8/8/22
f 27/27/23 30/30/23 52/52/23
f 50/50/24 49/49/24 22/22/24 2/2/24
f 49/49/25 48/48/25 24/24/25 22/22/25
f 48/48/26 47/47/26 23/23/26 24/24/26
f 9/9/27 46/46/27 10/10/27
f 46/46/28 9/9/28 23/23/28 47/47/28
f 13/13/29 45/45/29 15/15/29
f 45/45/30 13/13/30 10/10/30 46/46/30
f 16/16/31 44/44/31 26/26/31
f 44/44/32 16/16/32 15/15/32 45/45/32
f 26/26/33 44/44/33 14/14/33
f 51/51/11 52/52/11 203/203/11 197/197/11
f 197/197/11 203/203/11 204/204/11 198/198/11
f 198/198/11 204/204/11 205/205/11 199/199/11
f 199/199/11 205/205/11 206/206/11 200/200/11
f 200/200/11 206/206/11 207/207/11 201/201/11
f 201/201/11 207/207/11 208/208/11 202/202/11
f 50/50/11 51/51/11 197/197/11 191/191/11
f 191/191/11 197/197/11 198/198/11 192/192/11
f 192/192/11 198/198/11 199/199/11 193/193/11
f 193/193/11 199/199/11 200/200/11 194/194/11
f 194/194/11 200/200/11 201/201/11 195/195/11
f 195/195/11 201/201/11 202/202/11 196/196/11
f 49/49/11 50/50/11 191/191/11 185/185/11
f 185/185/11 191/191/11 192/192/11 186/186/11
f 186/186/11 192/192/11 193/193/11 187/187/11
f 187/187/11 193/193/11 194/194/11 188/188/11
f 188/188/11 194/194/11 195/195/11 189/189/11
f 189/189/11 195/195/11 196/196/11 190/190/11
f 48/48/11 49/49/11 185/185/11 179/179/11
f 179/179/11 185/185/11 186/186/11 180/180/11
f 180/180/11 186/186/11 187/187/11 181/181/11
f 181/181/11 187/187/11 188/188/11 182/182/11
f 182/182/11 188/188/11 189/189/11 183/183/11
f 183/183/11 189/189/11 190/190/11 184/184/11
f 47/47/11 48/48/11 179/179/11 173/173/11
f 173/173/11 179/179/11 180/180/11 174/174/11
f 174/174/11 180/180/11 181/181/11 175/175/11
f 175/175/11 181/181/11 182/182/11 176/176/11
f 176/176/11 182/182/11 183/183/11 177/177/11
f 177/177/11 183/183/11 184/184/11 178/178/11
f 46/46/11 47/47/11 173/173/11 167/167/11
f 167/167/11 173/173/11 174/174/11 168/168/11
f 168/168/11 174/174/11 175/175/11 169/169/11
f 169/169/11 175/175/11 176/176/11 170/170/11
f 170/170/11 176/176/11 177/177/11 171/171/11
f 171/171/11 177/177/11 178/178/11 172/172/11
f 45/45/11 46/46/11 167/167/11 161/161/11
f 161/161/11 167/167/11 168/168/11 162/162/11
f 162/162/11 168/168/11 169/169/11 163/163/11
f 163/163/11 169/169/11 170/170/11 164/164/11
f 164/164/11 170/170/11 171/171/11 165/165/11
f 165/165/11 171/171/11 172/172/11 166/166/11
f 44/44/11 45/45/11 161/161/11 155/155/11
f 155/155/11 161/161/11 162/162/11 156/156/11
f 156/156/11 162/162/11 163/163/11 157/157/11
f 157/157/11 163/163/11 164/164/11 158/158/11
f 158/158/11 164/164/11 165/165/11 159/159/11
f 159/159/11 165/165/11 166/166/11 160/160/11
f 14/14/11 44/44/11 155/155/11 58/58/11
f 58/58/11 155/155/11 156/156/11 57/57/11
f 57/57/11 156/156/11 157/157/11 56/56/11
f 56/56/11 157/157/11 158/158/11 55/55/11
f 55/55/11 158/158/11 159/159/11 54/54/11
f 54/54/11 159/159/11 160/160/11 53/53/11
f 1/1/34 28/28/34 119/119/34 101/101/34
f 101/101/35 119/119/35 120/120/35 102/102/35
f 102/102/36 120/120/36 121/121/36 103/103/36
f 103/103/37 121/121/37 122/122/37 104/104/37
f 104/104/38 122/122/38 123/123/38 105/105/38
f 105/105/39 123/123/39 124/124/39 106/106/39
f 4/4/40 25/25/40 113/113/40 53/53/40
f 53/53/41 113/113/41 114/114/41 54/54/41
f 54/54/42 114/114/42 115/115/42 55/55/42
f 55/55/43 115/115/43 116/116/43 56/56/43
f 56/56/44 116/116/44 117/117/44 57/57/44
f 57/57/45 117/117/45 118/118/45 58/58/45
f 17/17/46 12/12/46 89/89/46 95/95/46
f 95/95/47 89/89/47 90/90/47 96/96/47
f 96/96/48 90/90/48 91/91/48 97/97/48
f 97/97/49 91/91/49 92/92/49 98/98/49
f 98/98/50 92/92/50 93/93/50 99/99/50
f 99/99/51 93/93/51 94/94/51 100/100/51
f 33/33/52 32/32/52 59/59/52 77/77/52
f 77/77/53 59/59/53 60/60/53 78/78/53
f 78/78/54 60/60/54 61/61/54 79/79/54
f 79/79/55 61/61/55 62/62/55 80/80/55
f 80/80/56 62/62/56 63/63/56 81/81/56
f 81/81/57 63/63/57 64/64/57 82/82/57
f 18/18/58 17/17/58 95/95/58 149/149/58
f 149/149/59 95/95/59 96/96/59 150/150/59
f 150/150/60 96/96/60 97/97/60 151/151/60
f 151/151/61 97/97/61 98/98/61 152/152/61
f 152/152/62 98/98/62 99/99/62 153/153/62
f 153/153/63 99/99/63 100/100/63 154/154/63
f 32/32/64 31/31/64 107/107/64 59/59/64
f 59/59/65 107/107/65 108/108/65 60/60/65
f 60/60/66 108/108/66 109/109/66 61/61/66
f 61/61/67 109/109/67 110/110/67 62/62/67
f 62/62/68 110/110/68 111/111/68 63/63/68
f 63/63/69 111/111/69 112/112/69 64/64/69
f 52/52/11 30/30/11 142/142/11 203/203/11
f 203/203/11 142/142/11 141/141/11 204/204/11
f 204/204/11 141/141/11 140/140/11 205/205/11
f 205/205/11 140/140/11 139/139/11 206/206/11
f 206/206/11 139/139/11 138/138/11 207/207/11
f 207/207/11 138/138/11 137/137/11 208/208/11
f 25/25/70 21/21/70 131/131/70 113/113/70
f 113/113/71 131/131/71 132/132/71 114/114/71
f 114/114/72 132/132/72 133/133/72 115/115/72
f 115/115/73 133/133/73 134/134/73 116/116/73
f 116/116/74 134/134/74 135/135/74 117/117/74
f 117/117/75 135/135/75 136/136/75 118/118/75
f 21/21/76 20/20/76 83/83/76 131/131/76
f 131/131/77 83/83/77 84/84/77 132/132/77
f 132/132/78 84/84/78 85/85/78 133/133/78
f 133/133/79 85/85/79 86/86/79 134/134/79
f 134/134/80 86/86/80 87/87/80 135/135/80
f 135/135/81 87/87/81 88/88/81 136/136/81
f 20/20/82 19/19/82 71/71/82 83/83/82
f 83/83/83 71/71/83 72/72/83 84/84/83
f 84/84/84 72/72/84 73/73/84 85/85/84
f 85/85/85 73/73/85 74/74/85 86/86/85
f 86/86/86 74/74/86 75/75/86 87/87/86
f 87/87/87 75/75/87 76/76/87 88/88/87
f 11/11/88 34/34/88 125/125/88 65/65/88
f 65/65/89 125/125/89 126/126/89 66/66/89
f 66/66/90 126/126/90 127/127/90 67/67/90
f 67/67/91 127/127/91 128/128/91 68/68/91
f 68/68/92 128/128/92 129/129/92 69/69/92
f 69/69/93 129/129/93 130/130/93 70/70/93
f 19/19/94 18/18/94 149/149/94 71/71/94
f 71/71/95 149/149/95 150/150/95 72/72/95
f 72/72/96 150/150/96 151/151/96 73/73/96
f 73/73/97 151/151/97 152/152/97 74/74/97
f 74/74/98 152/152/98 153/153/98 75/75/98
f 75/75/99 153/153/99 154/154/99 76/76/99
f 34/34/100 33/33/100 77/77/100 125/125/100
f 125/125/101 77/77/101 78/78/101 126/126/101
f 126/126/102 78/78/102 79/79/102 127/127/102
f 127/127/103 79/79/103 80/80/103 128/128/103
f 128/128/104 80/80/104 81/81/104 129/129/104
f 129/129/105 81/81/105 82/82/105 130/130/105
f 12/12/106 3/3/106 143/143/106 89/89/106
f 89/89/107 143/143/107 144/144/107 90/90/107
f 90/90/108 144/144/108 145/145/108 91/91/108
f 91/91/109 145/145/109 146/146/109 92/92/109
f 92/92/110 146/146/110 147/147/110 93/93/110
f 93/93/111 147/147/111 148/148/111 94/94/111
f 3/3/112 11/11/112 65/65/112 143/143/112
f 143/143/113 65/65/113 66/66/113 144/144/113
f 144/144/114 66/66/114 67/67/114 145/145/114
f 145/145/115 67/67/115 68/68/115 146/146/115
f 146/146/116 68/68/116 69/69/116 147/147/116
f 147/147/117 69/69/117 70/70/117 148/148/117
f 31/31/118 1/1/118 101/101/118 107/107/118
f 107/107/119 101/101/119 102/102/119 108/108/119
f 108/108/120 102/102/120 103/103/120 109/109/120
f 109/109/121 103/103/121 104/104/121 110/110/121
f 110/110/122 104/104/122 105/105/122 111/111/122
f 111/111/123 105/105/123 106/106/123 112/112/123
f 28/28/124 29/29/124 137/137/124 119/119/124
f 119/119/125 137/137/125 138/138/125 120/120/125
f 120/120/126 138/138/126 139/139/126 121/121/126
f 121/121/127 139/139/127 140/140/127 122/122/127
f 122/122/128 140/140/128 141/141/128 123/123/128
f 123/123/129 141/141/129 142/142/129 124/124/129
