# Blender 3.5.0
# www.blender.org
mtllib wall_edge_2.mtl
o S2
v 6.928000 0.000000 1.333333
v 6.928000 -0.000000 -3.111111
v 5.158222 0.000000 0.888889
v 4.657019 0.000000 0.000000
v 4.657019 -0.000000 -0.888889
v 5.158222 -0.000000 -1.777778
v 5.158222 -0.000000 -2.666667
v 6.928000 -0.000000 -4.000000
v 6.928000 0.000000 3.111111
v 6.928000 0.000000 2.222222
v 6.928000 0.000000 0.444444
v 6.928000 -0.000000 -0.444445
v 6.928000 -0.000000 -1.333333
v 6.928000 -0.000000 -2.222222
v 5.158222 0.000000 3.555556
v 5.158222 -0.000000 -3.555556
v 5.158222 0.000000 2.666667
v 5.158222 0.000000 1.777778
v 6.928000 5.000000 -3.111111
v 6.928000 5.000000 -4.000000
v 6.928000 5.000000 3.111110
v 6.928000 5.000000 2.222222
v 6.928000 5.000000 1.333333
v 6.928000 5.000000 0.444444
v 6.928000 5.000000 -0.444445
v 6.928000 5.000000 -1.333333
v 6.928000 5.000000 -2.222223
v 6.289113 4.867758 3.777047
v 6.158222 5.000000 -3.555557
v 6.339866 4.958529 2.624623
v 6.591036 5.017011 1.711507
v 6.358050 5.234166 0.978351
v 6.379476 4.710005 0.039591
v 6.407465 4.804890 -0.715909
v 6.404262 5.126902 -2.041738
v 6.345199 4.946728 -2.372812
v 6.043111 -0.000000 -3.777778
v 6.543111 5.000000 -3.777779
v 6.543111 5.000000 3.997778
v 6.043111 0.000000 3.997778
v 6.928000 0.000000 4.000000
v 6.928000 5.000000 4.000000
v 6.928000 0.714285 -4.000000
v 6.928000 1.428571 -4.000000
v 6.928000 2.142857 -4.000000
v 6.928000 2.857143 -4.000000
v 6.928000 3.571429 -4.000000
v 6.928000 4.285714 -4.000000
v 6.928000 0.714286 3.111111
v 6.928000 1.428572 3.111111
v 6.928000 2.142857 3.111111
v 6.928000 2.857143 3.111111
v 6.928000 3.571429 3.111111
v 6.928000 4.285714 3.111111
v 6.928000 0.714286 2.222222
v 6.928000 1.428572 2.222222
v 6.928000 2.142857 2.222222
v 6.928000 2.857143 2.222222
v 6.928000 3.571429 2.222222
v 6.928000 4.285714 2.222222
v 6.928000 0.714286 0.444444
v 6.928000 1.428571 0.444444
v 6.928000 2.142857 0.444444
v 6.928000 2.857143 0.444444
v 6.928000 3.571429 0.444444
v 6.928000 4.285714 0.444444
v 6.928000 0.714286 -0.444445
v 6.928000 1.428571 -0.444445
v 6.928000 2.142857 -0.444445
v 6.928000 2.857143 -0.444445
v 6.928000 3.571429 -0.444445
v 6.928000 4.285714 -0.444445
v 6.928000 0.714286 -1.333333
v 6.928000 1.428571 -1.333333
v 6.928000 2.142857 -1.333333
v 6.928000 2.857143 -1.333333
v 6.928000 3.571429 -1.333333
v 6.928000 4.285714 -1.333333
v 6.928000 0.714286 -2.222222
v 6.928000 1.428571 -2.222222
v 6.928000 2.142857 -2.222222
v 6.928000 2.857143 -2.222222
v 6.928000 3.571429 -2.222222
v 6.928000 4.285714 -2.222222
v 5.342772 0.680097 3.550659
v 5.369153 1.510531 3.371095
v 5.591465 2.071206 3.591635
v 5.633539 3.205250 3.658230
v 5.840358 3.584008 3.608066
v 6.022080 4.279579 3.718517
v 5.246672 0.767444 1.773308
v 5.516652 1.256380 1.877902
v 5.555839 2.375623 2.075542
v 5.708398 3.143413 1.973186
v 5.697402 3.653886 1.717432
v 6.226481 4.196069 1.685031
v 5.500130 0.933376 -3.601421
v 5.301847 1.260513 -3.615913
v 5.900868 2.033521 -3.219062
v 5.772356 2.804305 -3.700232
v 5.758868 3.604378 -3.399189
v 5.696392 4.643356 -3.629224
v 5.325743 0.748800 2.606274
v 5.431190 1.431315 2.638051
v 5.863013 2.275504 2.430579
v 5.776037 2.882446 2.537937
v 5.687833 3.667865 2.720259
v 6.017368 4.297460 2.659068
v 6.928000 0.714285 -3.111111
v 6.928000 1.428571 -3.111111
v 6.928000 2.142857 -3.111111
v 6.928000 2.857143 -3.111111
v 6.928000 3.571429 -3.111111
v 6.928000 4.285714 -3.111111
v 6.928000 0.714286 1.333333
v 6.928000 1.428572 1.333333
v 6.928000 2.142857 1.333333
v 6.928000 2.857143 1.333333
v 6.928000 3.571429 1.333333
v 6.928000 4.285714 1.333333
v 5.481523 0.938484 0.932023
v 5.267866 1.367305 1.205853
v 5.334813 1.902430 0.733701
v 5.759517 2.929711 1.016043
v 5.818029 3.421336 0.806421
v 5.987667 4.334463 0.940381
v 5.549756 0.758067 -1.678562
v 5.466287 1.602025 -1.655617
v 5.587451 2.142763 -1.777894
v 5.455813 2.573732 -2.020437
v 5.868426 3.577453 -1.777778
v 5.864143 4.473856 -1.434538
v 4.488753 0.489764 -0.949864
v 5.146595 1.621566 -1.090508
v 5.430205 2.181026 -1.082857
v 5.971686 2.719203 -0.874322
v 6.050903 3.678351 -1.132405
v 6.012340 4.281002 -0.998316
v 4.988782 0.741421 -2.804726
v 5.274503 1.680586 -2.765600
v 5.642881 2.043305 -2.982344
v 5.541275 3.075528 -2.398260
v 5.581531 3.605669 -2.619153
v 6.006902 3.859040 -2.635893
v 4.825486 1.015633 -0.285523
v 5.430016 1.492090 0.003020
v 5.814651 2.059301 -0.033725
v 5.744282 2.849875 0.005834
v 5.946424 3.716247 0.236346
v 6.023624 4.531129 0.152902
v 5.825972 0.568552 -3.905602
v 5.927574 1.425574 -3.715479
v 6.099749 2.121889 -3.462770
v 6.001304 3.008720 -3.874121
v 6.608174 3.405840 -3.731388
v 6.448930 4.198802 -3.740434
v 5.959683 0.468054 4.074849
v 6.112739 1.263836 3.860452
v 6.035306 1.868290 4.014262
v 6.138672 2.669010 4.158433
v 6.393018 3.832669 4.338161
v 6.307534 4.197825 3.976513
v 6.928000 0.714286 4.000000
v 6.928000 1.428572 4.000000
v 6.928000 2.142857 4.000000
v 6.928000 2.857143 4.000000
v 6.928000 3.571429 4.000000
v 6.928000 4.285715 4.000000
vn 1.0000 -0.0000 -0.0000
vn -0.8625 0.3549 0.3607
vn -0.0247 -0.0102 0.9996
vn -0.7232 0.6437 0.2502
vn -0.8844 0.4088 -0.2250
vn -0.6739 0.7359 -0.0658
vn -0.9044 0.4267 0.0021
vn -0.8527 0.3917 0.3457
vn -0.8265 0.5474 -0.1313
vn -0.0000 1.0000 -0.0000
vn -0.1764 0.9813 -0.0766
vn -0.0703 0.9975 -0.0000
vn 0.0504 0.9987 -0.0000
vn 0.3800 0.9250 -0.0000
vn -0.4674 0.8841 -0.0000
vn -0.3510 0.9364 -0.0000
vn 0.2355 0.9719 -0.0000
vn -0.0910 0.9958 -0.0000
vn -0.1295 0.9890 0.0722
vn -0.0328 0.9980 0.0549
vn 0.2664 0.9439 0.1949
vn -0.0995 0.8678 -0.4868
vn -0.3946 0.9134 0.1001
vn -0.0838 0.9683 0.2354
vn 0.0451 0.8741 -0.4837
vn -0.0286 0.9984 0.0495
vn -0.8829 0.3954 -0.2534
vn -0.2279 0.1397 -0.9636
vn -0.4877 0.0088 -0.8730
vn -0.6610 0.1974 0.7240
vn -0.5416 -0.0051 0.8406
vn -0.5210 0.2548 0.8146
vn -0.6389 -0.1622 0.7520
vn -0.7065 -0.0239 0.7073
vn -0.7292 0.1622 0.6648
vn -0.7625 0.2138 0.6106
vn -0.1474 -0.1227 -0.9814
vn -0.1848 0.1298 -0.9742
vn -0.4031 0.2088 -0.8910
vn -0.3584 -0.2529 -0.8987
vn -0.2927 0.2774 -0.9151
vn -0.5368 -0.0618 -0.8415
vn -0.4155 -0.0704 -0.9069
vn -0.3693 0.1068 -0.9232
vn -0.4594 0.5496 -0.6978
vn -0.4278 -0.4732 -0.7701
vn -0.3749 0.4799 -0.7932
vn -0.3227 -0.1608 -0.9327
vn -0.9531 0.1480 0.2641
vn -0.9426 0.0958 0.3200
vn -0.8708 0.4894 0.0469
vn -0.9843 -0.1288 -0.1204
vn -0.9246 0.2691 0.2698
vn -0.9352 0.3525 -0.0352
vn -0.8397 0.2698 0.4712
vn -0.9382 0.2720 0.2141
vn -0.9289 0.2578 -0.2658
vn -0.9448 0.2261 -0.2371
vn -0.9810 0.1890 -0.0445
vn -0.9874 0.1430 -0.0677
vn -0.9569 0.0675 -0.2826
vn -0.9451 0.0715 -0.3190
vn -0.6569 0.6261 -0.4200
vn -0.9531 -0.1055 -0.2837
vn -0.9800 0.0316 -0.1964
vn -0.9320 0.3004 0.2026
vn -0.9706 0.2400 0.0180
vn -0.9961 0.0841 -0.0273
vn -0.8983 0.4195 -0.1305
vn -0.9840 -0.0076 -0.1782
vn -0.9947 0.1022 -0.0072
vn -0.9300 0.3553 0.0937
vn -0.9794 0.0455 0.1969
vn -0.7850 0.6032 0.1409
vn -0.8138 0.4907 0.3112
vn -0.9442 0.3207 0.0754
vn -0.9767 0.1482 -0.1552
vn -0.9988 0.0287 -0.0402
vn -0.9846 0.1682 0.0470
vn -0.9506 0.3086 -0.0341
vn -0.9572 0.2305 0.1748
vn -0.9193 0.0424 0.3913
vn -0.9969 -0.0749 0.0251
vn -0.8052 0.5802 -0.1229
vn -0.7235 0.1501 -0.6738
vn -0.6902 0.1586 -0.7060
vn -0.8903 0.2910 -0.3503
vn -0.9104 0.3899 0.1384
vn -0.9166 0.2322 0.3254
vn -0.9525 -0.1168 0.2813
vn 0.0473 -0.0617 0.9970
vn -0.0697 0.1471 0.9867
vn -0.0424 -0.1182 0.9921
vn 0.1295 -0.1027 0.9862
vn 0.3413 -0.1353 0.9302
vn 0.2936 0.3245 0.8992
vn -0.9659 0.2356 -0.1078
vn -0.9984 0.0534 0.0191
vn -0.9730 0.0972 0.2095
vn -0.9511 0.3080 -0.0217
vn -0.9957 0.0042 -0.0925
vn -0.9018 0.4302 0.0399
vt 0.000000 0.000000
vt 0.000000 0.000000
vt 0.000000 0.000000
vt 0.000000 0.000000
vt 0.000000 0.000000
vt 0.000000 0.000000
vt 0.000000 0.000000
vt 0.000000 0.000000
vt 0.000000 0.000000
vt 0.000000 0.000000
vt 0.000000 0.000000
vt 0.000000 0.000000
vt 0.000000 0.000000
vt 0.000000 0.000000
vt 0.000000 0.000000
vt 0.000000 0.000000
vt 0.000000 0.000000
vt 0.000000 0.000000
vt 0.000000 0.000000
vt 0.000000 0.000000
vt 0.000000 0.000000
vt 0.000000 0.000000
vt 0.000000 0.000000
vt 0.000000 0.000000
vt 0.000000 0.000000
vt 0.000000 0.000000
vt 0.000000 0.000000
vt 0.000000 0.000000
vt 0.000000 0.000000
vt 0.000000 0.000000
vt 0.000000 0.000000
vt 0.000000 0.000000
vt 0.000000 0.000000
vt 0.000000 0.000000
vt 0.000000 0.000000
vt 0.000000 0.000000
vt 0.000000 0.000000
vt 0.000000 0.000000
vt 0.000000 0.000000
vt 0.000000 0.000000
vt 0.000000 0.000000
vt 0.000000 0.000000
vt 0.000000 0.000000
vt 0.000000 0.000000
vt 0.000000 0.000000
vt 0.000000 0.000000
vt 0.000000 0.000000
vt 0.000000 0.000000
vt 0.000000 0.000000
vt 0.000000 0.000000
vt 0.000000 0.000000
vt 0.000000 0.000000
vt 0.000000 0.000000
vt 0.000000 0.000000
vt 0.000000 0.000000
vt 0.000000 0.000000
vt 0.000000 0.000000
vt 0.000000 0.000000
vt 0.000000 0.000000
vt 0.000000 0.000000
vt 0.000000 0.000000
vt 0.000000 0.000000
vt 0.000000 0.000000
vt 0.000000 0.000000
vt 0.000000 0.000000
vt 0.000000 0.000000
vt 0.000000 0.000000
vt 0.000000 0.000000
vt 0.000000 0.000000
vt 0.000000 0.000000
vt 0.000000 0.000000
vt 0.000000 0.000000
vt 0.000000 0.000000
vt 0.000000 0.000000
vt 0.000000 0.000000
vt 0.000000 0.000000
vt 0.000000 0.000000
vt 0.000000 0.000000
vt 0.000000 0.000000
vt 0.000000 0.000000
vt 0.000000 0.000000
vt 0.000000 0.000000
vt 0.000000 0.000000
vt 0.000000 0.000000
vt 0.000000 0.000000
vt 0.000000 0.000000
vt 0.000000 0.000000
vt 0.000000 0.000000
vt 0.000000 0.000000
vt 0.000000 0.000000
vt 0.000000 0.000000
vt 0.000000 0.000000
vt 0.000000 0.000000
vt 0.000000 0.000000
vt 0.000000 0.000000
vt 0.000000 0.000000
vt 0.000000 0.000000
vt 0.000000 0.000000
vt 0.000000 0.000000
vt 0.000000 0.000000
vt 0.000000 0.000000
vt 0.000000 0.000000
vt 0.000000 0.000000
vt 0.000000 0.000000
vt 0.000000 0.000000
vt 0.000000 0.000000
vt 0.000000 0.000000
vt 0.000000 0.000000
vt 0.000000 0.000000
vt 0.000000 0.000000
vt 0.000000 0.000000
vt 0.000000 0.000000
vt 0.000000 0.000000
vt 0.000000 0.000000
vt 0.000000 0.000000
vt 0.000000 0.000000
vt 0.000000 0.000000
vt 0.000000 0.000000
vt 0.000000 0.000000
vt 0.000000 0.000000
vt 0.000000 0.000000
vt 0.000000 0.000000
vt 0.000000 0.000000
vt 0.000000 0.000000
vt 0.000000 0.000000
vt 0.000000 0.000000
vt 0.000000 0.000000
vt 0.000000 0.000000
vt 0.000000 0.000000
vt 0.000000 0.000000
vt 0.000000 0.000000
vt 0.000000 0.000000
vt 0.000000 0.000000
vt 0.000000 0.000000
vt 0.000000 0.000000
vt 0.000000 0.000000
vt 0.000000 0.000000
vt 0.000000 0.000000
vt 0.000000 0.000000
vt 0.000000 0.000000
vt 0.000000 0.000000
vt 0.000000 0.000000
vt 0.000000 0.000000
vt 0.000000 0.000000
vt 0.000000 0.000000
vt 0.000000 0.000000
vt 0.000000 0.000000
vt 0.000000 0.000000
vt 0.000000 0.000000
vt 0.000000 0.000000
vt 0.000000 0.000000
vt 0.000000 0.000000
vt 0.000000 0.000000
vt 0.000000 0.000000
vt 0.000000 0.000000
vt 0.000000 0.000000
vt 0.000000 0.000000
vt 0.000000 0.000000
vt 0.000000 0.000000
vt 0.000000 0.000000
vt 0.000000 0.000000
vt 0.000000 0.000000
vt 0.000000 0.000000
vt 0.000000 0.000000
vt 0.000000 0.000000
vt 0.000000 0.000000
vt 0.000000 0.000000
vt 0.000000 0.000000
s 0
usemtl None.034
f 54/54/1 60/60/1 22/22/1 21/21/1
f 126/126/2 96/96/2 31/31/2 32/32/2
f 162/162/3 168/168/3 42/42/3 39/39/3
f 168/168/1 54/54/1 21/21/1 42/42/1
f 84/84/1 114/114/1 19/19/1 27/27/1
f 132/132/4 138/138/4 34/34/4 35/35/4
f 114/114/1 48/48/1 20/20/1 19/19/1
f 96/96/5 108/108/5 30/30/5 31/31/5
f 78/78/1 84/84/1 27/27/1 26/26/1
f 72/72/1 78/78/1 26/26/1 25/25/1
f 138/138/6 150/150/6 33/33/6 34/34/6
f 108/108/7 90/90/7 28/28/7 30/30/7
f 66/66/1 72/72/1 25/25/1 24/24/1
f 102/102/8 144/144/8 36/36/8 29/29/8
f 120/120/1 66/66/1 24/24/1 23/23/1
f 150/150/9 126/126/9 32/32/9 33/33/9
f 60/60/1 120/120/1 23/23/1 22/22/1
f 20/20/10 38/38/10 29/29/10 19/19/10
f 21/21/11 28/28/11 39/39/11 42/42/11
f 22/22/12 30/30/12 21/21/12
f 23/23/13 31/31/13 22/22/13
f 24/24/14 32/32/14 23/23/14
f 25/25/15 33/33/15 24/24/15
f 26/26/16 34/34/16 25/25/16
f 27/27/17 35/35/17 26/26/17
f 19/19/18 36/36/18 27/27/18
f 21/21/19 30/30/19 28/28/19
f 22/22/20 31/31/20 30/30/20
f 23/23/21 32/32/21 31/31/21
f 24/24/22 33/33/22 32/32/22
f 25/25/23 34/34/23 33/33/23
f 26/26/24 35/35/24 34/34/24
f 27/27/25 36/36/25 35/35/25
f 19/19/26 29/29/26 36/36/26
f 144/144/27 132/132/27 35/35/27 36/36/27
f 156/156/28 102/102/28 29/29/28 38/38/28
f 48/48/29 156/156/29 38/38/29 20/20/29
f 90/90/30 162/162/30 39/39/30 28/28/30
f 15/15/31 40/40/31 157/157/31 85/85/31
f 85/85/32 157/157/32 158/158/32 86/86/32
f 86/86/33 158/158/33 159/159/33 87/87/33
f 87/87/34 159/159/34 160/160/34 88/88/34
f 88/88/35 160/160/35 161/161/35 89/89/35
f 89/89/36 161/161/36 162/162/36 90/90/36
f 8/8/37 37/37/37 151/151/37 43/43/37
f 43/43/38 151/151/38 152/152/38 44/44/38
f 44/44/39 152/152/39 153/153/39 45/45/39
f 45/45/40 153/153/40 154/154/40 46/46/40
f 46/46/41 154/154/41 155/155/41 47/47/41
f 47/47/42 155/155/42 156/156/42 48/48/42
f 37/37/43 16/16/43 97/97/43 151/151/43
f 151/151/44 97/97/44 98/98/44 152/152/44
f 152/152/45 98/98/45 99/99/45 153/153/45
f 153/153/46 99/99/46 100/100/46 154/154/46
f 154/154/47 100/100/47 101/101/47 155/155/47
f 155/155/48 101/101/48 102/102/48 156/156/48
f 7/7/49 6/6/49 127/127/49 139/139/49
f 139/139/50 127/127/50 128/128/50 140/140/50
f 140/140/51 128/128/51 129/129/51 141/141/51
f 141/141/52 129/129/52 130/130/52 142/142/52
f 142/142/53 130/130/53 131/131/53 143/143/53
f 143/143/54 131/131/54 132/132/54 144/144/54
f 10/10/1 1/1/1 115/115/1 55/55/1
f 55/55/1 115/115/1 116/116/1 56/56/1
f 56/56/1 116/116/1 117/117/1 57/57/1
f 57/57/1 117/117/1 118/118/1 58/58/1
f 58/58/1 118/118/1 119/119/1 59/59/1
f 59/59/1 119/119/1 120/120/1 60/60/1
f 4/4/55 3/3/55 121/121/55 145/145/55
f 145/145/56 121/121/56 122/122/56 146/146/56
f 146/146/57 122/122/57 123/123/57 147/147/57
f 147/147/58 123/123/58 124/124/58 148/148/58
f 148/148/59 124/124/59 125/125/59 149/149/59
f 149/149/60 125/125/60 126/126/60 150/150/60
f 1/1/1 11/11/1 61/61/1 115/115/1
f 115/115/1 61/61/1 62/62/1 116/116/1
f 116/116/1 62/62/1 63/63/1 117/117/1
f 117/117/1 63/63/1 64/64/1 118/118/1
f 118/118/1 64/64/1 65/65/1 119/119/1
f 119/119/1 65/65/1 66/66/1 120/120/1
f 16/16/61 7/7/61 139/139/61 97/97/61
f 97/97/62 139/139/62 140/140/62 98/98/62
f 98/98/63 140/140/63 141/141/63 99/99/63
f 99/99/64 141/141/64 142/142/64 100/100/64
f 100/100/65 142/142/65 143/143/65 101/101/65
f 101/101/66 143/143/66 144/144/66 102/102/66
f 11/11/1 12/12/1 67/67/1 61/61/1
f 61/61/1 67/67/1 68/68/1 62/62/1
f 62/62/1 68/68/1 69/69/1 63/63/1
f 63/63/1 69/69/1 70/70/1 64/64/1
f 64/64/1 70/70/1 71/71/1 65/65/1
f 65/65/1 71/71/1 72/72/1 66/66/1
f 17/17/67 15/15/67 85/85/67 103/103/67
f 103/103/68 85/85/68 86/86/68 104/104/68
f 104/104/69 86/86/69 87/87/69 105/105/69
f 105/105/70 87/87/70 88/88/70 106/106/70
f 106/106/71 88/88/71 89/89/71 107/107/71
f 107/107/72 89/89/72 90/90/72 108/108/72
f 5/5/73 4/4/73 145/145/73 133/133/73
f 133/133/74 145/145/74 146/146/74 134/134/74
f 134/134/75 146/146/75 147/147/75 135/135/75
f 135/135/76 147/147/76 148/148/76 136/136/76
f 136/136/77 148/148/77 149/149/77 137/137/77
f 137/137/78 149/149/78 150/150/78 138/138/78
f 12/12/1 13/13/1 73/73/1 67/67/1
f 67/67/1 73/73/1 74/74/1 68/68/1
f 68/68/1 74/74/1 75/75/1 69/69/1
f 69/69/1 75/75/1 76/76/1 70/70/1
f 70/70/1 76/76/1 77/77/1 71/71/1
f 71/71/1 77/77/1 78/78/1 72/72/1
f 13/13/1 14/14/1 79/79/1 73/73/1
f 73/73/1 79/79/1 80/80/1 74/74/1
f 74/74/1 80/80/1 81/81/1 75/75/1
f 75/75/1 81/81/1 82/82/1 76/76/1
f 76/76/1 82/82/1 83/83/1 77/77/1
f 77/77/1 83/83/1 84/84/1 78/78/1
f 18/18/79 17/17/79 103/103/79 91/91/79
f 91/91/80 103/103/80 104/104/80 92/92/80
f 92/92/81 104/104/81 105/105/81 93/93/81
f 93/93/82 105/105/82 106/106/82 94/94/82
f 94/94/83 106/106/83 107/107/83 95/95/83
f 95/95/84 107/107/84 108/108/84 96/96/84
f 2/2/1 8/8/1 43/43/1 109/109/1
f 109/109/1 43/43/1 44/44/1 110/110/1
f 110/110/1 44/44/1 45/45/1 111/111/1
f 111/111/1 45/45/1 46/46/1 112/112/1
f 112/112/1 46/46/1 47/47/1 113/113/1
f 113/113/1 47/47/1 48/48/1 114/114/1
f 6/6/85 5/5/85 133/133/85 127/127/85
f 127/127/86 133/133/86 134/134/86 128/128/86
f 128/128/87 134/134/87 135/135/87 129/129/87
f 129/129/88 135/135/88 136/136/88 130/130/88
f 130/130/89 136/136/89 137/137/89 131/131/89
f 131/131/90 137/137/90 138/138/90 132/132/90
f 14/14/1 2/2/1 109/109/1 79/79/1
f 79/79/1 109/109/1 110/110/1 80/80/1
f 80/80/1 110/110/1 111/111/1 81/81/1
f 81/81/1 111/111/1 112/112/1 82/82/1
f 82/82/1 112/112/1 113/113/1 83/83/1
f 83/83/1 113/113/1 114/114/1 84/84/1
f 41/41/1 9/9/1 49/49/1 163/163/1
f 163/163/1 49/49/1 50/50/1 164/164/1
f 164/164/1 50/50/1 51/51/1 165/165/1
f 165/165/1 51/51/1 52/52/1 166/166/1
f 166/166/1 52/52/1 53/53/1 167/167/1
f 167/167/1 53/53/1 54/54/1 168/168/1
f 40/40/91 41/41/91 163/163/91 157/157/91
f 157/157/92 163/163/92 164/164/92 158/158/92
f 158/158/93 164/164/93 165/165/93 159/159/93
f 159/159/94 165/165/94 166/166/94 160/160/94
f 160/160/95 166/166/95 167/167/95 161/161/95
f 161/161/96 167/167/96 168/168/96 162/162/96
f 3/3/97 18/18/97 91/91/97 121/121/97
f 121/121/98 91/91/98 92/92/98 122/122/98
f 122/122/99 92/92/99 93/93/99 123/123/99
f 123/123/100 93/93/100 94/94/100 124/124/100
f 124/124/101 94/94/101 95/95/101 125/125/101
f 125/125/102 95/95/102 96/96/102 126/126/102
f 9/9/1 10/10/1 55/55/1 49/49/1
f 49/49/1 55/55/1 56/56/1 50/50/1
f 50/50/1 56/56/1 57/57/1 51/51/1
f 51/51/1 57/57/1 58/58/1 52/52/1
f 52/52/1 58/58/1 59/59/1 53/53/1
f 53/53/1 59/59/1 60/60/1 54/54/1
