# Blender 3.5.1
# www.blender.org
mtllib wall_edge_3.mtl
o S3
v 6.928000 0.000000 1.333333
v 6.928000 -0.000000 -3.111111
v 5.416202 0.000000 0.888889
v 5.368496 0.000000 0.000000
v 5.158222 -0.000000 -0.888889
v 5.402927 -0.000000 -1.777778
v 5.953426 -0.000000 -2.666667
v 6.928000 -0.000000 -4.000000
v 6.928000 0.000000 3.111111
v 6.928000 0.000000 2.222222
v 6.928000 0.000000 0.444444
v 6.928000 -0.000000 -0.444445
v 6.928000 -0.000000 -1.333333
v 6.928000 -0.000000 -2.222222
v 5.897749 0.000000 2.925849
v 6.196421 -0.000000 -3.145045
v 5.637630 0.000000 2.109200
v 5.507177 0.000000 1.475991
v 6.928000 5.000000 -3.111111
v 6.928000 5.000000 -4.000000
v 6.928000 5.000000 3.111110
v 6.928000 5.000000 2.222222
v 6.928000 5.000000 1.333333
v 6.928000 5.000000 0.444444
v 6.928000 5.000000 -0.444445
v 6.928000 5.000000 -1.333333
v 6.928000 5.000000 -2.222223
v 6.603274 5.000000 3.043708
v 6.784208 4.903080 -3.608213
v 6.446974 5.041471 2.708710
v 6.421429 4.587184 1.844048
v 6.557938 4.765834 0.799426
v 6.364365 5.193524 -0.039592
v 6.336376 5.098639 -1.061870
v 6.417017 4.873098 -1.513819
v 6.609715 5.053272 -2.960523
v 6.478951 -0.000000 -3.598662
v 6.882307 4.970909 -3.860007
v 6.742042 5.000000 3.492021
v 6.326650 0.000000 3.678098
v 6.928000 0.000000 4.000000
v 6.928000 5.000000 4.000000
v 6.928000 0.714285 -4.000000
v 6.928000 1.428571 -4.000000
v 6.928000 2.142857 -4.000000
v 6.928000 2.857143 -4.000000
v 6.928000 3.571429 -4.000000
v 6.928000 4.285714 -4.000000
v 6.928000 0.714286 3.111111
v 6.928000 1.428572 3.111111
v 6.928000 2.142857 3.111111
v 6.928000 2.857143 3.111111
v 6.928000 3.571429 3.111111
v 6.928000 4.285714 3.111111
v 6.928000 0.714286 2.222222
v 6.928000 1.428572 2.222222
v 6.928000 2.142857 2.222222
v 6.928000 2.857143 2.222222
v 6.928000 3.571429 2.222222
v 6.928000 4.285714 2.222222
v 6.928000 0.714286 0.444444
v 6.928000 1.428571 0.444444
v 6.928000 2.142857 0.444444
v 6.928000 2.857143 0.444444
v 6.928000 3.571429 0.444444
v 6.928000 4.285714 0.444444
v 6.928000 0.714286 -0.444445
v 6.928000 1.428571 -0.444445
v 6.928000 2.142857 -0.444445
v 6.928000 2.857143 -0.444445
v 6.928000 3.571429 -0.444445
v 6.928000 4.285714 -0.444445
v 6.928000 0.714286 -1.333333
v 6.928000 1.428571 -1.333333
v 6.928000 2.142857 -1.333333
v 6.928000 2.857143 -1.333333
v 6.928000 3.571429 -1.333333
v 6.928000 4.285714 -1.333333
v 6.928000 0.714286 -2.222222
v 6.928000 1.428571 -2.222222
v 6.928000 2.142857 -2.222222
v 6.928000 2.857143 -2.222222
v 6.928000 3.571429 -2.222222
v 6.928000 4.285714 -2.222222
v 6.288865 0.748475 2.930747
v 6.104753 1.346612 3.182913
v 6.168156 2.214509 2.889769
v 6.245007 2.419649 3.240989
v 6.309262 3.558850 3.246796
v 6.615887 4.291850 3.316366
v 5.704442 0.661128 1.480461
v 5.978241 1.600763 1.677654
v 6.309705 1.910091 1.480014
v 6.194348 2.570873 1.582370
v 6.047612 3.488972 1.838123
v 5.804248 4.375359 1.870525
v 6.140227 0.495195 -3.099180
v 6.347326 1.596630 -3.495200
v 6.486886 2.252193 -3.517069
v 6.312057 2.909980 -3.386023
v 6.282265 3.538480 -3.340456
v 6.550905 4.174360 -3.376908
v 5.779841 0.679771 2.169593
v 5.887922 1.425829 2.695283
v 5.932176 2.010211 2.647075
v 5.861422 2.831840 2.539717
v 6.057182 3.474993 2.613074
v 6.013361 4.273969 2.674266
v 6.928000 0.714285 -3.111111
v 6.928000 1.428571 -3.111111
v 6.928000 2.142857 -3.111111
v 6.928000 2.857143 -3.111111
v 6.928000 3.571429 -3.111111
v 6.928000 4.285714 -3.111111
v 6.928000 0.714286 1.333333
v 6.928000 1.428572 1.333333
v 6.928000 2.142857 1.333333
v 6.928000 2.857143 1.333333
v 6.928000 3.571429 1.333333
v 6.928000 4.285714 1.333333
v 5.378615 0.490087 0.845755
v 5.847743 1.489838 0.571924
v 6.033510 2.383284 1.044077
v 6.143229 2.784575 0.761735
v 5.926986 3.721522 0.971357
v 6.043062 4.236966 0.837397
v 5.632703 0.670504 -1.876994
v 5.635045 1.255117 -1.899940
v 5.751706 2.142951 -1.777662
v 6.003488 3.140554 -1.535120
v 5.876589 3.565404 -1.777778
v 6.166586 4.097572 -2.121019
v 5.612201 0.938807 -0.827915
v 5.741278 1.235577 -0.687271
v 5.743382 2.104688 -0.694921
v 5.487615 2.995083 -0.903457
v 5.694112 3.464507 -0.645373
v 6.018390 4.290427 -0.779462
v 6.003069 0.687150 -2.528608
v 6.003062 1.176556 -2.567734
v 5.920399 2.242409 -2.350991
v 6.099807 2.638757 -2.935074
v 6.163484 3.537188 -2.714182
v 6.492263 4.712388 -2.697442
v 5.346776 0.412938 0.285523
v 5.703624 1.365053 -0.003020
v 5.607715 2.226413 0.033725
v 5.715019 2.864410 -0.005834
v 5.798591 3.426611 -0.236346
v 6.007106 4.040299 -0.152903
v 6.689618 0.860019 -3.599784
v 6.543333 1.431568 -3.590452
v 6.700587 2.163825 -3.733576
v 6.656346 2.705565 -3.681436
v 6.520351 3.737017 -3.550045
v 6.676590 4.372625 -3.703471
v 6.569220 0.960518 3.676390
v 6.542737 1.593308 3.815423
v 6.763026 2.417425 3.661614
v 6.766494 3.045276 3.837122
v 6.692260 3.310189 3.657395
v 6.635831 4.373604 3.665014
v 6.928000 0.714286 4.000000
v 6.928000 1.428572 4.000000
v 6.928000 2.142857 4.000000
v 6.928000 2.857143 4.000000
v 6.928000 3.571429 4.000000
v 6.928000 4.285715 4.000000
vn 1.0000 -0.0000 -0.0000
vn -0.5489 0.8317 -0.0830
vn -0.8562 0.1323 0.4994
vn -0.9080 0.3672 -0.2015
vn -0.6804 0.7305 -0.0588
vn -0.9437 0.3284 0.0405
vn -0.7477 0.3083 0.5881
vn -0.9460 0.1883 -0.2638
vn -0.8784 0.4479 0.1668
vn -0.5559 0.8313 0.0016
vn -0.0000 1.0000 -0.0000
vn 0.0859 0.9963 -0.0000
vn -0.6317 0.7752 -0.0000
vn -0.5347 0.8450 -0.0000
vn 0.3247 0.9458 -0.0000
vn 0.1645 0.9864 -0.0000
vn -0.2410 0.9705 -0.0000
vn 0.1651 0.9863 -0.0000
vn -0.0282 0.9903 0.1357
vn -0.3590 0.8306 -0.4258
vn -0.5938 0.8024 0.0596
vn -0.1032 0.8763 0.4705
vn 0.2607 0.9606 -0.0963
vn -0.0603 0.8888 -0.4543
vn -0.0919 0.9896 0.1110
vn 0.0645 0.9758 -0.2089
vn -0.9343 0.3404 -0.1056
vn -0.9379 0.2360 -0.2543
vn -0.8214 0.0611 -0.5671
vn -0.9750 0.1288 0.1810
vn -0.8723 0.3228 0.3673
vn -0.8007 -0.3015 0.5177
vn -0.8147 0.2719 0.5122
vn -0.5802 -0.3946 0.7125
vn -0.7556 0.0752 0.6507
vn -0.8696 0.1003 0.4835
vn -0.7463 0.0994 -0.6581
vn -0.7972 -0.0864 -0.5975
vn -0.7409 0.0141 -0.6714
vn -0.7608 0.0001 -0.6490
vn -0.7493 -0.0085 -0.6622
vn -0.7477 0.0111 -0.6639
vn -0.7695 0.1085 -0.6294
vn -0.5894 -0.1615 -0.7915
vn -0.5930 0.0312 -0.8046
vn -0.6794 -0.0120 -0.7337
vn -0.6550 0.0151 -0.7555
vn -0.8759 0.2293 -0.4246
vn -0.8439 0.1881 -0.5024
vn -0.8729 -0.0263 -0.4873
vn -0.9151 0.0843 -0.3943
vn -0.9515 0.2505 -0.1789
vn -0.9873 -0.0496 -0.1507
vn -0.9220 0.2838 -0.2633
vn -0.9950 -0.0812 0.0589
vn -0.9114 0.4056 0.0691
vn -0.9367 -0.0524 0.3461
vn -0.8636 0.3047 0.4016
vn -0.9570 -0.0808 0.2785
vn -0.9609 0.2767 0.0100
vn -0.9361 0.0490 -0.3482
vn -0.9531 0.0420 -0.2999
vn -0.9199 0.0740 -0.3850
vn -0.8711 -0.1907 -0.4526
vn -0.9584 0.0696 -0.2769
vn -0.9206 0.3010 -0.2488
vn -0.8617 0.3032 0.4069
vn -0.8201 -0.3207 0.4740
vn -0.8496 0.1796 0.4960
vn -0.8419 -0.1200 0.5261
vn -0.8867 0.1094 0.4491
vn -0.8305 0.0956 0.5487
vn -0.9550 0.2924 0.0505
vn -0.9321 0.3533 -0.0793
vn -0.9923 -0.0519 -0.1125
vn -0.9946 -0.0876 0.0556
vn -0.9291 0.2541 0.2688
vn -0.9206 0.3470 0.1794
vn -0.9607 0.2361 0.1462
vn -0.9763 0.2163 0.0113
vn -0.9230 0.3368 -0.1861
vn -0.9475 -0.1200 -0.2965
vn -0.9786 0.0714 -0.1929
vn -0.9772 -0.1733 0.1227
vn -0.9074 0.3813 -0.1770
vn -0.9893 0.1446 0.0216
vn -0.9969 0.0645 0.0441
vn -0.9564 0.0032 -0.2921
vn -0.9303 0.0889 -0.3559
vn -0.9197 0.3680 -0.1366
vn -0.5421 0.0794 0.8366
vn -0.5964 -0.0940 0.7972
vn -0.6073 0.1647 0.7773
vn -0.8620 -0.0635 0.5028
vn -0.7888 0.0526 0.6123
vn -0.7851 -0.0276 0.6187
vn -0.9429 0.1409 0.3019
vn -0.9158 0.3580 0.1821
vn -0.8969 0.3148 0.3106
vn -0.9612 0.0411 0.2729
vn -0.9781 -0.2029 0.0459
vn -0.9933 -0.0950 -0.0665
vt 0.000000 0.000000
vt 0.000000 0.000000
vt 0.000000 0.000000
vt 0.000000 0.000000
vt 0.000000 0.000000
vt 0.000000 0.000000
vt 0.000000 0.000000
vt 0.000000 0.000000
vt 0.000000 0.000000
vt 0.000000 0.000000
vt 0.000000 0.000000
vt 0.000000 0.000000
vt 0.000000 0.000000
vt 0.000000 0.000000
vt 0.000000 0.000000
vt 0.000000 0.000000
vt 0.000000 0.000000
vt 0.000000 0.000000
vt 0.000000 0.000000
vt 0.000000 0.000000
vt 0.000000 0.000000
vt 0.000000 0.000000
vt 0.000000 0.000000
vt 0.000000 0.000000
vt 0.000000 0.000000
vt 0.000000 0.000000
vt 0.000000 0.000000
vt 0.000000 0.000000
vt 0.000000 0.000000
vt 0.000000 0.000000
vt 0.000000 0.000000
vt 0.000000 0.000000
vt 0.000000 0.000000
vt 0.000000 0.000000
vt 0.000000 0.000000
vt 0.000000 0.000000
vt 0.000000 0.000000
vt 0.000000 0.000000
vt 0.000000 0.000000
vt 0.000000 0.000000
vt 0.000000 0.000000
vt 0.000000 0.000000
vt 0.000000 0.000000
vt 0.000000 0.000000
vt 0.000000 0.000000
vt 0.000000 0.000000
vt 0.000000 0.000000
vt 0.000000 0.000000
vt 0.000000 0.000000
vt 0.000000 0.000000
vt 0.000000 0.000000
vt 0.000000 0.000000
vt 0.000000 0.000000
vt 0.000000 0.000000
vt 0.000000 0.000000
vt 0.000000 0.000000
vt 0.000000 0.000000
vt 0.000000 0.000000
vt 0.000000 0.000000
vt 0.000000 0.000000
vt 0.000000 0.000000
vt 0.000000 0.000000
vt 0.000000 0.000000
vt 0.000000 0.000000
vt 0.000000 0.000000
vt 0.000000 0.000000
vt 0.000000 0.000000
vt 0.000000 0.000000
vt 0.000000 0.000000
vt 0.000000 0.000000
vt 0.000000 0.000000
vt 0.000000 0.000000
vt 0.000000 0.000000
vt 0.000000 0.000000
vt 0.000000 0.000000
vt 0.000000 0.000000
vt 0.000000 0.000000
vt 0.000000 0.000000
vt 0.000000 0.000000
vt 0.000000 0.000000
vt 0.000000 0.000000
vt 0.000000 0.000000
vt 0.000000 0.000000
vt 0.000000 0.000000
vt 0.000000 0.000000
vt 0.000000 0.000000
vt 0.000000 0.000000
vt 0.000000 0.000000
vt 0.000000 0.000000
vt 0.000000 0.000000
vt 0.000000 0.000000
vt 0.000000 0.000000
vt 0.000000 0.000000
vt 0.000000 0.000000
vt 0.000000 0.000000
vt 0.000000 0.000000
vt 0.000000 0.000000
vt 0.000000 0.000000
vt 0.000000 0.000000
vt 0.000000 0.000000
vt 0.000000 0.000000
vt 0.000000 0.000000
vt 0.000000 0.000000
vt 0.000000 0.000000
vt 0.000000 0.000000
vt 0.000000 0.000000
vt 0.000000 0.000000
vt 0.000000 0.000000
vt 0.000000 0.000000
vt 0.000000 0.000000
vt 0.000000 0.000000
vt 0.000000 0.000000
vt 0.000000 0.000000
vt 0.000000 0.000000
vt 0.000000 0.000000
vt 0.000000 0.000000
vt 0.000000 0.000000
vt 0.000000 0.000000
vt 0.000000 0.000000
vt 0.000000 0.000000
vt 0.000000 0.000000
vt 0.000000 0.000000
vt 0.000000 0.000000
vt 0.000000 0.000000
vt 0.000000 0.000000
vt 0.000000 0.000000
vt 0.000000 0.000000
vt 0.000000 0.000000
vt 0.000000 0.000000
vt 0.000000 0.000000
vt 0.000000 0.000000
vt 0.000000 0.000000
vt 0.000000 0.000000
vt 0.000000 0.000000
vt 0.000000 0.000000
vt 0.000000 0.000000
vt 0.000000 0.000000
vt 0.000000 0.000000
vt 0.000000 0.000000
vt 0.000000 0.000000
vt 0.000000 0.000000
vt 0.000000 0.000000
vt 0.000000 0.000000
vt 0.000000 0.000000
vt 0.000000 0.000000
vt 0.000000 0.000000
vt 0.000000 0.000000
vt 0.000000 0.000000
vt 0.000000 0.000000
vt 0.000000 0.000000
vt 0.000000 0.000000
vt 0.000000 0.000000
vt 0.000000 0.000000
vt 0.000000 0.000000
vt 0.000000 0.000000
vt 0.000000 0.000000
vt 0.000000 0.000000
vt 0.000000 0.000000
vt 0.000000 0.000000
vt 0.000000 0.000000
vt 0.000000 0.000000
vt 0.000000 0.000000
vt 0.000000 0.000000
vt 0.000000 0.000000
vt 0.000000 0.000000
vt 0.000000 0.000000
vt 0.000000 0.000000
vt 0.000000 0.000000
s 0
usemtl None.029
f 54/54/1 60/60/1 22/22/1 21/21/1
f 126/126/2 96/96/2 31/31/2 32/32/2
f 162/162/3 168/168/3 42/42/3 39/39/3
f 168/168/1 54/54/1 21/21/1 42/42/1
f 84/84/1 114/114/1 19/19/1 27/27/1
f 132/132/4 138/138/4 34/34/4 35/35/4
f 114/114/1 48/48/1 20/20/1 19/19/1
f 96/96/5 108/108/5 30/30/5 31/31/5
f 78/78/1 84/84/1 27/27/1 26/26/1
f 72/72/1 78/78/1 26/26/1 25/25/1
f 138/138/6 150/150/6 33/33/6 34/34/6
f 108/108/7 90/90/7 28/28/7 30/30/7
f 66/66/1 72/72/1 25/25/1 24/24/1
f 102/102/8 144/144/8 36/36/8 29/29/8
f 120/120/1 66/66/1 24/24/1 23/23/1
f 150/150/9 126/126/9 32/32/9 33/33/9
f 60/60/1 120/120/1 23/23/1 22/22/1
f 20/20/10 38/38/10 29/29/10 19/19/10
f 21/21/11 28/28/11 39/39/11 42/42/11
f 22/22/12 30/30/12 21/21/12
f 23/23/13 31/31/13 22/22/13
f 24/24/14 32/32/14 23/23/14
f 25/25/15 33/33/15 24/24/15
f 26/26/16 34/34/16 25/25/16
f 27/27/17 35/35/17 26/26/17
f 19/19/18 36/36/18 27/27/18
f 21/21/19 30/30/19 28/28/19
f 22/22/20 31/31/20 30/30/20
f 23/23/21 32/32/21 31/31/21
f 24/24/22 33/33/22 32/32/22
f 25/25/23 34/34/23 33/33/23
f 26/26/24 35/35/24 34/34/24
f 27/27/25 36/36/25 35/35/25
f 19/19/26 29/29/26 36/36/26
f 144/144/27 132/132/27 35/35/27 36/36/27
f 156/156/28 102/102/28 29/29/28 38/38/28
f 48/48/29 156/156/29 38/38/29 20/20/29
f 90/90/30 162/162/30 39/39/30 28/28/30
f 15/15/31 40/40/31 157/157/31 85/85/31
f 85/85/32 157/157/32 158/158/32 86/86/32
f 86/86/33 158/158/33 159/159/33 87/87/33
f 87/87/34 159/159/34 160/160/34 88/88/34
f 88/88/35 160/160/35 161/161/35 89/89/35
f 89/89/36 161/161/36 162/162/36 90/90/36
f 8/8/37 37/37/37 151/151/37 43/43/37
f 43/43/38 151/151/38 152/152/38 44/44/38
f 44/44/39 152/152/39 153/153/39 45/45/39
f 45/45/40 153/153/40 154/154/40 46/46/40
f 46/46/41 154/154/41 155/155/41 47/47/41
f 47/47/42 155/155/42 156/156/42 48/48/42
f 37/37/43 16/16/43 97/97/43 151/151/43
f 151/151/44 97/97/44 98/98/44 152/152/44
f 152/152/45 98/98/45 99/99/45 153/153/45
f 153/153/46 99/99/46 100/100/46 154/154/46
f 154/154/47 100/100/47 101/101/47 155/155/47
f 155/155/48 101/101/48 102/102/48 156/156/48
f 7/7/49 6/6/49 127/127/49 139/139/49
f 139/139/50 127/127/50 128/128/50 140/140/50
f 140/140/51 128/128/51 129/129/51 141/141/51
f 141/141/52 129/129/52 130/130/52 142/142/52
f 142/142/53 130/130/53 131/131/53 143/143/53
f 143/143/54 131/131/54 132/132/54 144/144/54
f 10/10/1 1/1/1 115/115/1 55/55/1
f 55/55/1 115/115/1 116/116/1 56/56/1
f 56/56/1 116/116/1 117/117/1 57/57/1
f 57/57/1 117/117/1 118/118/1 58/58/1
f 58/58/1 118/118/1 119/119/1 59/59/1
f 59/59/1 119/119/1 120/120/1 60/60/1
f 4/4/55 3/3/55 121/121/55 145/145/55
f 145/145/56 121/121/56 122/122/56 146/146/56
f 146/146/57 122/122/57 123/123/57 147/147/57
f 147/147/58 123/123/58 124/124/58 148/148/58
f 148/148/59 124/124/59 125/125/59 149/149/59
f 149/149/60 125/125/60 126/126/60 150/150/60
f 1/1/1 11/11/1 61/61/1 115/115/1
f 115/115/1 61/61/1 62/62/1 116/116/1
f 116/116/1 62/62/1 63/63/1 117/117/1
f 117/117/1 63/63/1 64/64/1 118/118/1
f 118/118/1 64/64/1 65/65/1 119/119/1
f 119/119/1 65/65/1 66/66/1 120/120/1
f 16/16/61 7/7/61 139/139/61 97/97/61
f 97/97/62 139/139/62 140/140/62 98/98/62
f 98/98/63 140/140/63 141/141/63 99/99/63
f 99/99/64 141/141/64 142/142/64 100/100/64
f 100/100/65 142/142/65 143/143/65 101/101/65
f 101/101/66 143/143/66 144/144/66 102/102/66
f 11/11/1 12/12/1 67/67/1 61/61/1
f 61/61/1 67/67/1 68/68/1 62/62/1
f 62/62/1 68/68/1 69/69/1 63/63/1
f 63/63/1 69/69/1 70/70/1 64/64/1
f 64/64/1 70/70/1 71/71/1 65/65/1
f 65/65/1 71/71/1 72/72/1 66/66/1
f 17/17/67 15/15/67 85/85/67 103/103/67
f 103/103/68 85/85/68 86/86/68 104/104/68
f 104/104/69 86/86/69 87/87/69 105/105/69
f 105/105/70 87/87/70 88/88/70 106/106/70
f 106/106/71 88/88/71 89/89/71 107/107/71
f 107/107/72 89/89/72 90/90/72 108/108/72
f 5/5/73 4/4/73 145/145/73 133/133/73
f 133/133/74 145/145/74 146/146/74 134/134/74
f 134/134/75 146/146/75 147/147/75 135/135/75
f 135/135/76 147/147/76 148/148/76 136/136/76
f 136/136/77 148/148/77 149/149/77 137/137/77
f 137/137/78 149/149/78 150/150/78 138/138/78
f 12/12/1 13/13/1 73/73/1 67/67/1
f 67/67/1 73/73/1 74/74/1 68/68/1
f 68/68/1 74/74/1 75/75/1 69/69/1
f 69/69/1 75/75/1 76/76/1 70/70/1
f 70/70/1 76/76/1 77/77/1 71/71/1
f 71/71/1 77/77/1 78/78/1 72/72/1
f 13/13/1 14/14/1 79/79/1 73/73/1
f 73/73/1 79/79/1 80/80/1 74/74/1
f 74/74/1 80/80/1 81/81/1 75/75/1
f 75/75/1 81/81/1 82/82/1 76/76/1
f 76/76/1 82/82/1 83/83/1 77/77/1
f 77/77/1 83/83/1 84/84/1 78/78/1
f 18/18/79 17/17/79 103/103/79 91/91/79
f 91/91/80 103/103/80 104/104/80 92/92/80
f 92/92/81 104/104/81 105/105/81 93/93/81
f 93/93/82 105/105/82 106/106/82 94/94/82
f 94/94/83 106/106/83 107/107/83 95/95/83
f 95/95/84 107/107/84 108/108/84 96/96/84
f 2/2/1 8/8/1 43/43/1 109/109/1
f 109/109/1 43/43/1 44/44/1 110/110/1
f 110/110/1 44/44/1 45/45/1 111/111/1
f 111/111/1 45/45/1 46/46/1 112/112/1
f 112/112/1 46/46/1 47/47/1 113/113/1
f 113/113/1 47/47/1 48/48/1 114/114/1
f 6/6/85 5/5/85 133/133/85 127/127/85
f 127/127/86 133/133/86 134/134/86 128/128/86
f 128/128/87 134/134/87 135/135/87 129/129/87
f 129/129/88 135/135/88 136/136/88 130/130/88
f 130/130/89 136/136/89 137/137/89 131/131/89
f 131/131/90 137/137/90 138/138/90 132/132/90
f 14/14/1 2/2/1 109/109/1 79/79/1
f 79/79/1 109/109/1 110/110/1 80/80/1
f 80/80/1 110/110/1 111/111/1 81/81/1
f 81/81/1 111/111/1 112/112/1 82/82/1
f 82/82/1 112/112/1 113/113/1 83/83/1
f 83/83/1 113/113/1 114/114/1 84/84/1
f 41/41/1 9/9/1 49/49/1 163/163/1
f 163/163/1 49/49/1 50/50/1 164/164/1
f 164/164/1 50/50/1 51/51/1 165/165/1
f 165/165/1 51/51/1 52/52/1 166/166/1
f 166/166/1 52/52/1 53/53/1 167/167/1
f 167/167/1 53/53/1 54/54/1 168/168/1
f 40/40/91 41/41/91 163/163/91 157/157/91
f 157/157/92 163/163/92 164/164/92 158/158/92
f 158/158/93 164/164/93 165/165/93 159/159/93
f 159/159/94 165/165/94 166/166/94 160/160/94
f 160/160/95 166/166/95 167/167/95 161/161/95
f 161/161/96 167/167/96 168/168/96 162/162/96
f 3/3/97 18/18/97 91/91/97 121/121/97
f 121/121/98 91/91/98 92/92/98 122/122/98
f 122/122/99 92/92/99 93/93/99 123/123/99
f 123/123/100 93/93/100 94/94/100 124/124/100
f 124/124/101 94/94/101 95/95/101 125/125/101
f 125/125/102 95/95/102 96/96/102 126/126/102
f 9/9/1 10/10/1 55/55/1 49/49/1
f 49/49/1 55/55/1 56/56/1 50/50/1
f 50/50/1 56/56/1 57/57/1 51/51/1
f 51/51/1 57/57/1 58/58/1 52/52/1
f 52/52/1 58/58/1 59/59/1 53/53/1
f 53/53/1 59/59/1 60/60/1 54/54/1
