# Blender 3.5.1
# www.blender.org
mtllib bush_lower_poly.mtl
o Cylinder
v -0.163922 0.000000 -0.074948
v -0.156742 1.600000 0.151519
v -0.159631 0.000000 -0.310023
v -0.156742 1.600000 0.151519
v 0.065264 0.000000 -0.378585
v -0.156742 1.600000 0.151519
v 0.199967 0.000000 -0.185884
v -0.156742 1.600000 0.151519
v 0.058322 0.000000 0.001774
v -0.156742 1.600000 0.151519
v -0.316415 0.320000 -0.088470
v -0.331390 0.640000 -0.039745
v -0.176524 0.960000 -0.000474
v -0.116578 1.280000 0.083961
v -0.115033 1.280000 -0.000666
v -0.173778 0.960000 -0.150922
v -0.327786 0.640000 -0.237208
v -0.312296 0.320000 -0.314142
v -0.034071 1.280000 -0.025348
v -0.029845 0.960000 -0.194801
v -0.138874 0.640000 -0.294800
v -0.096397 0.320000 -0.379961
v 0.014422 1.280000 0.044024
v 0.056365 0.960000 -0.071472
v -0.025724 0.640000 -0.132930
v 0.032918 0.320000 -0.194967
v -0.036570 1.280000 0.111581
v -0.034288 0.960000 0.048629
v -0.144705 0.640000 0.024702
v -0.103061 0.320000 -0.014816
vn -0.9925 -0.1207 -0.0181
vn -0.2692 0.3848 -0.8829
vn 0.6932 0.5336 -0.4846
vn 0.7788 0.2191 0.5878
vn -0.3173 -0.2338 0.9190
vn -0.3242 -0.1148 0.9390
vn -0.3223 -0.1572 0.9335
vn -0.3260 0.0419 0.9444
vn -0.3207 -0.1850 0.9289
vn 0.7322 0.3979 0.5527
vn 0.7978 0.0295 0.6022
vn 0.7601 -0.3052 0.5737
vn 0.7931 -0.1121 0.5987
vn 0.7579 0.3806 -0.5298
vn 0.7930 0.2528 -0.5543
vn 0.8155 -0.0997 -0.5701
vn 0.7819 0.2998 -0.5466
vn -0.2883 -0.1497 -0.9458
vn -0.2850 0.2110 -0.9350
vn -0.2709 0.3700 -0.8887
vn -0.2605 0.4491 -0.8546
vn -0.9023 -0.4307 -0.0165
vn -0.9989 -0.0440 -0.0182
vn -0.8992 0.4372 -0.0164
vn -0.9819 0.1887 -0.0179
vt 0.000000 0.500000
vt 1.000000 0.500000
vt 1.000000 1.000000
vt 0.000000 1.000000
vt 0.800000 0.500000
vt 0.800000 1.000000
vt 0.600000 0.500000
vt 0.600000 1.000000
vt 0.400000 0.500000
vt 0.400000 1.000000
vt 0.200000 0.500000
vt 0.200000 1.000000
vt 0.000000 0.600000
vt 1.000000 0.600000
vt 0.000000 0.700000
vt 1.000000 0.700000
vt 0.000000 0.800000
vt 1.000000 0.800000
vt 0.000000 0.900000
vt 1.000000 0.900000
vt 0.800000 0.900000
vt 0.800000 0.800000
vt 0.800000 0.700000
vt 0.800000 0.600000
vt 0.600000 0.900000
vt 0.600000 0.800000
vt 0.600000 0.700000
vt 0.600000 0.600000
vt 0.400000 0.900000
vt 0.400000 0.800000
vt 0.400000 0.700000
vt 0.400000 0.600000
vt 0.200000 0.900000
vt 0.200000 0.800000
vt 0.200000 0.700000
vt 0.200000 0.600000
s 0
f 14/20/1 2/3/1 4/6/1 15/21/1
f 15/21/2 4/6/2 6/8/2 19/25/2
f 19/25/3 6/8/3 8/10/3 23/29/3
f 23/29/4 8/10/4 10/12/4 27/33/4
f 27/33/5 10/12/5 2/4/5 14/19/5
f 9/11/6 30/36/6 11/13/6 1/1/6
f 30/36/7 29/35/7 12/15/7 11/13/7
f 29/35/8 28/34/8 13/17/8 12/15/8
f 28/34/9 27/33/9 14/19/9 13/17/9
f 7/9/10 26/32/10 30/36/10 9/11/10
f 26/32/11 25/31/11 29/35/11 30/36/11
f 25/31/12 24/30/12 28/34/12 29/35/12
f 24/30/13 23/29/13 27/33/13 28/34/13
f 5/7/14 22/28/14 26/32/14 7/9/14
f 22/28/15 21/27/15 25/31/15 26/32/15
f 21/27/16 20/26/16 24/30/16 25/31/16
f 20/26/17 19/25/17 23/29/17 24/30/17
f 3/5/18 18/24/18 22/28/18 5/7/18
f 18/24/19 17/23/19 21/27/19 22/28/19
f 17/23/20 16/22/20 20/26/20 21/27/20
f 16/22/21 15/21/21 19/25/21 20/26/21
f 1/2/22 11/14/22 18/24/22 3/5/22
f 11/14/23 12/16/23 17/23/23 18/24/23
f 12/16/24 13/18/24 16/22/24 17/23/24
f 13/18/25 14/20/25 15/21/25 16/22/25
o Cylinder.001
v -0.352039 0.000000 0.251766
v -0.200895 1.600000 0.420569
v -0.499935 0.000000 0.068995
v -0.200895 1.600000 0.420569
v -0.371811 0.000000 -0.128142
v -0.200895 1.600000 0.420569
v -0.144731 0.000000 -0.067208
v -0.200895 1.600000 0.420569
v -0.132511 0.000000 0.167588
v -0.200895 1.600000 0.420569
v -0.477509 0.320000 0.339484
v -0.457641 0.640000 0.386426
v -0.313793 0.960000 0.316901
v -0.213587 1.280000 0.343006
v -0.266830 1.280000 0.277208
v -0.408447 0.960000 0.199927
v -0.581873 0.640000 0.232898
v -0.619489 0.320000 0.164023
v -0.220705 1.280000 0.206239
v -0.326448 0.960000 0.073760
v -0.474249 0.640000 0.067303
v -0.496490 0.320000 -0.025229
v -0.138956 1.280000 0.228175
v -0.181116 0.960000 0.112758
v -0.283501 0.640000 0.118488
v -0.278493 0.320000 0.033268
v -0.134557 1.280000 0.312702
v -0.173295 0.960000 0.263027
v -0.273237 0.640000 0.315717
v -0.266762 0.320000 0.258673
vn -0.7717 -0.1207 0.6244
vn -0.7739 0.3848 -0.5030
vn 0.2192 0.5336 -0.8169
vn 0.9744 0.2191 -0.0507
vn 0.3481 -0.2338 0.9078
vn 0.3557 -0.1148 0.9275
vn 0.3536 -0.1572 0.9221
vn 0.3577 0.0419 0.9329
vn 0.3518 -0.1850 0.9176
vn 0.9162 0.3979 -0.0477
vn 0.9982 0.0295 -0.0520
vn 0.9510 -0.3052 -0.0495
vn 0.9924 -0.1121 -0.0516
vn 0.2397 0.3806 -0.8931
vn 0.2508 0.2528 -0.9345
vn 0.2579 -0.0997 -0.9610
vn 0.2473 0.2998 -0.9214
vn -0.8290 -0.1497 -0.5388
vn -0.8196 0.2110 -0.5327
vn -0.7790 0.3700 -0.5063
vn -0.7492 0.4491 -0.4869
vn -0.7016 -0.4307 0.5677
vn -0.7766 -0.0440 0.6284
vn -0.6991 0.4372 0.5657
vn -0.7634 0.1887 0.6177
vt 0.000000 0.500000
vt 1.000000 0.500000
vt 1.000000 1.000000
vt 0.000000 1.000000
vt 0.800000 0.500000
vt 0.800000 1.000000
vt 0.600000 0.500000
vt 0.600000 1.000000
vt 0.400000 0.500000
vt 0.400000 1.000000
vt 0.200000 0.500000
vt 0.200000 1.000000
vt 0.000000 0.600000
vt 1.000000 0.600000
vt 0.000000 0.700000
vt 1.000000 0.700000
vt 0.000000 0.800000
vt 1.000000 0.800000
vt 0.000000 0.900000
vt 1.000000 0.900000
vt 0.800000 0.900000
vt 0.800000 0.800000
vt 0.800000 0.700000
vt 0.800000 0.600000
vt 0.600000 0.900000
vt 0.600000 0.800000
vt 0.600000 0.700000
vt 0.600000 0.600000
vt 0.400000 0.900000
vt 0.400000 0.800000
vt 0.400000 0.700000
vt 0.400000 0.600000
vt 0.200000 0.900000
vt 0.200000 0.800000
vt 0.200000 0.700000
vt 0.200000 0.600000
s 0
f 44/56/26 32/39/26 34/42/26 45/57/26
f 45/57/27 34/42/27 36/44/27 49/61/27
f 49/61/28 36/44/28 38/46/28 53/65/28
f 53/65/29 38/46/29 40/48/29 57/69/29
f 57/69/30 40/48/30 32/40/30 44/55/30
f 39/47/31 60/72/31 41/49/31 31/37/31
f 60/72/32 59/71/32 42/51/32 41/49/32
f 59/71/33 58/70/33 43/53/33 42/51/33
f 58/70/34 57/69/34 44/55/34 43/53/34
f 37/45/35 56/68/35 60/72/35 39/47/35
f 56/68/36 55/67/36 59/71/36 60/72/36
f 55/67/37 54/66/37 58/70/37 59/71/37
f 54/66/38 53/65/38 57/69/38 58/70/38
f 35/43/39 52/64/39 56/68/39 37/45/39
f 52/64/40 51/63/40 55/67/40 56/68/40
f 51/63/41 50/62/41 54/66/41 55/67/41
f 50/62/42 49/61/42 53/65/42 54/66/42
f 33/41/43 48/60/43 52/64/43 35/43/43
f 48/60/44 47/59/44 51/63/44 52/64/44
f 47/59/45 46/58/45 50/62/45 51/63/45
f 46/58/46 45/57/46 49/61/46 50/62/46
f 31/38/47 41/50/47 48/60/47 33/41/47
f 41/50/48 42/52/48 47/59/48 48/60/48
f 42/52/49 43/54/49 46/58/49 47/59/49
f 43/54/50 44/56/50 45/57/50 46/58/50
o Cylinder.002
v 0.121823 0.000000 0.456385
v 0.337076 1.600000 0.385637
v -0.104922 0.000000 0.518556
v 0.337076 1.600000 0.385637
v -0.234118 0.000000 0.322120
v 0.337076 1.600000 0.385637
v -0.087220 0.000000 0.138545
v 0.337076 1.600000 0.385637
v 0.132764 0.000000 0.221526
v 0.337076 1.600000 0.385637
v 0.151851 0.320000 0.606503
v 0.202822 0.640000 0.607131
v 0.196830 0.960000 0.447476
v 0.260934 1.280000 0.366153
v 0.179306 1.280000 0.388534
v 0.051713 0.960000 0.487265
v 0.012356 0.640000 0.659354
v -0.065824 0.320000 0.666187
v 0.132795 1.280000 0.317818
v -0.030973 0.960000 0.361546
v -0.096169 0.640000 0.494348
v -0.189852 0.320000 0.477608
v 0.185678 1.280000 0.251731
v 0.063042 0.960000 0.244058
v 0.027225 0.640000 0.340145
v -0.048830 0.320000 0.301377
v 0.264873 1.280000 0.281604
v 0.203831 0.960000 0.297166
v 0.212012 0.640000 0.409849
v 0.162354 0.320000 0.381038
vn 0.2625 -0.1207 0.9573
vn -0.7712 0.3848 0.5072
vn -0.6604 0.5336 -0.5284
vn 0.3444 0.2191 -0.9129
vn 0.9712 -0.2338 0.0452
vn 0.9923 -0.1148 0.0462
vn 0.9865 -0.1572 0.0460
vn 0.9980 0.0419 0.0465
vn 0.9817 -0.1850 0.0457
vn 0.3238 0.3979 -0.8584
vn 0.3528 0.0295 -0.9352
vn 0.3361 -0.3052 -0.8910
vn 0.3507 -0.1121 -0.9297
vn -0.7220 0.3806 -0.5778
vn -0.7554 0.2528 -0.6045
vn -0.7769 -0.0997 -0.6217
vn -0.7449 0.2998 -0.5961
vn -0.8261 -0.1497 0.5433
vn -0.8167 0.2110 0.5371
vn -0.7762 0.3700 0.5105
vn -0.7465 0.4491 0.4910
vn 0.2386 -0.4307 0.8704
vn 0.2642 -0.0440 0.9635
vn 0.2378 0.4372 0.8674
vn 0.2597 0.1887 0.9471
vt 0.000000 0.500000
vt 1.000000 0.500000
vt 1.000000 1.000000
vt 0.000000 1.000000
vt 0.800000 0.500000
vt 0.800000 1.000000
vt 0.600000 0.500000
vt 0.600000 1.000000
vt 0.400000 0.500000
vt 0.400000 1.000000
vt 0.200000 0.500000
vt 0.200000 1.000000
vt 0.000000 0.600000
vt 1.000000 0.600000
vt 0.000000 0.700000
vt 1.000000 0.700000
vt 0.000000 0.800000
vt 1.000000 0.800000
vt 0.000000 0.900000
vt 1.000000 0.900000
vt 0.800000 0.900000
vt 0.800000 0.800000
vt 0.800000 0.700000
vt 0.800000 0.600000
vt 0.600000 0.900000
vt 0.600000 0.800000
vt 0.600000 0.700000
vt 0.600000 0.600000
vt 0.400000 0.900000
vt 0.400000 0.800000
vt 0.400000 0.700000
vt 0.400000 0.600000
vt 0.200000 0.900000
vt 0.200000 0.800000
vt 0.200000 0.700000
vt 0.200000 0.600000
s 0
f 74/92/51 62/75/51 64/78/51 75/93/51
f 75/93/52 64/78/52 66/80/52 79/97/52
f 79/97/53 66/80/53 68/82/53 83/101/53
f 83/101/54 68/82/54 70/84/54 87/105/54
f 87/105/55 70/84/55 62/76/55 74/91/55
f 69/83/56 90/108/56 71/85/56 61/73/56
f 90/108/57 89/107/57 72/87/57 71/85/57
f 89/107/58 88/106/58 73/89/58 72/87/58
f 88/106/59 87/105/59 74/91/59 73/89/59
f 67/81/60 86/104/60 90/108/60 69/83/60
f 86/104/61 85/103/61 89/107/61 90/108/61
f 85/103/62 84/102/62 88/106/62 89/107/62
f 84/102/63 83/101/63 87/105/63 88/106/63
f 65/79/64 82/100/64 86/104/64 67/81/64
f 82/100/65 81/99/65 85/103/65 86/104/65
f 81/99/66 80/98/66 84/102/66 85/103/66
f 80/98/67 79/97/67 83/101/67 84/102/67
f 63/77/68 78/96/68 82/100/68 65/79/68
f 78/96/69 77/95/69 81/99/69 82/100/69
f 77/95/70 76/94/70 80/98/70 81/99/70
f 76/94/71 75/93/71 79/97/71 80/98/71
f 61/74/72 71/86/72 78/96/72 63/77/72
f 71/86/73 72/88/73 77/95/73 78/96/73
f 72/88/74 73/90/74 76/94/74 77/95/74
f 73/90/75 74/92/75 75/93/75 76/94/75
o Cylinder.003
v 0.304381 0.000000 -0.050169
v 0.122302 1.600000 -0.185026
v 0.486094 0.000000 0.099025
v 0.122302 1.600000 -0.185026
v 0.400355 0.000000 0.317948
v 0.122302 1.600000 -0.185026
v 0.165651 0.000000 0.304056
v 0.122302 1.600000 -0.185026
v 0.106336 0.000000 0.076547
v 0.122303 1.600000 -0.185026
v 0.409585 0.320000 -0.161386
v 0.380658 0.640000 -0.203357
v 0.253786 0.960000 -0.106254
v 0.150374 1.280000 -0.111616
v 0.215791 1.280000 -0.057906
v 0.370083 0.960000 -0.010770
v 0.533298 0.640000 -0.078034
v 0.584030 0.320000 -0.018159
v 0.184925 1.280000 0.020906
v 0.315209 0.960000 0.129341
v 0.461277 0.640000 0.105861
v 0.501720 0.320000 0.192007
v 0.100432 1.280000 0.015905
v 0.164999 0.960000 0.120450
v 0.264126 0.640000 0.094192
v 0.276405 0.320000 0.178671
v 0.079078 1.280000 -0.065998
v 0.127037 0.960000 -0.025155
v 0.214301 0.640000 -0.096916
v 0.219462 0.320000 -0.039738
vn 0.6299 -0.1207 -0.7672
vn 0.8594 0.3848 0.3366
vn -0.0500 0.5336 0.8443
vn -0.9441 0.2191 0.2462
vn -0.5240 -0.2338 -0.8190
vn -0.5354 -0.1148 -0.8368
vn -0.5323 -0.1572 -0.8319
vn -0.5385 0.0419 -0.8416
vn -0.5297 -0.1850 -0.8278
vn -0.8877 0.3979 0.2314
vn -0.9672 0.0295 0.2522
vn -0.9215 -0.3052 0.2402
vn -0.9616 -0.1121 0.2507
vn -0.0546 0.3806 0.9231
vn -0.0572 0.2528 0.9658
vn -0.0588 -0.0997 0.9933
vn -0.0564 0.2998 0.9523
vn 0.9206 -0.1497 0.3606
vn 0.9102 0.2110 0.3565
vn 0.8651 0.3700 0.3388
vn 0.8319 0.4491 0.3258
vn 0.5727 -0.4307 -0.6975
vn 0.6339 -0.0440 -0.7721
vn 0.5707 0.4372 -0.6951
vn 0.6232 0.1887 -0.7590
vt 0.000000 0.500000
vt 1.000000 0.500000
vt 1.000000 1.000000
vt 0.000000 1.000000
vt 0.800000 0.500000
vt 0.800000 1.000000
vt 0.600000 0.500000
vt 0.600000 1.000000
vt 0.400000 0.500000
vt 0.400000 1.000000
vt 0.200000 0.500000
vt 0.200000 1.000000
vt 0.000000 0.600000
vt 1.000000 0.600000
vt 0.000000 0.700000
vt 1.000000 0.700000
vt 0.000000 0.800000
vt 1.000000 0.800000
vt 0.000000 0.900000
vt 1.000000 0.900000
vt 0.800000 0.900000
vt 0.800000 0.800000
vt 0.800000 0.700000
vt 0.800000 0.600000
vt 0.600000 0.900000
vt 0.600000 0.800000
vt 0.600000 0.700000
vt 0.600000 0.600000
vt 0.400000 0.900000
vt 0.400000 0.800000
vt 0.400000 0.700000
vt 0.400000 0.600000
vt 0.200000 0.900000
vt 0.200000 0.800000
vt 0.200000 0.700000
vt 0.200000 0.600000
s 0
f 104/128/76 92/111/76 94/114/76 105/129/76
f 105/129/77 94/114/77 96/116/77 109/133/77
f 109/133/78 96/116/78 98/118/78 113/137/78
f 113/137/79 98/118/79 100/120/79 117/141/79
f 117/141/80 100/120/80 92/112/80 104/127/80
f 99/119/81 120/144/81 101/121/81 91/109/81
f 120/144/82 119/143/82 102/123/82 101/121/82
f 119/143/83 118/142/83 103/125/83 102/123/83
f 118/142/84 117/141/84 104/127/84 103/125/84
f 97/117/85 116/140/85 120/144/85 99/119/85
f 116/140/86 115/139/86 119/143/86 120/144/86
f 115/139/87 114/138/87 118/142/87 119/143/87
f 114/138/88 113/137/88 117/141/88 118/142/88
f 95/115/89 112/136/89 116/140/89 97/117/89
f 112/136/90 111/135/90 115/139/90 116/140/90
f 111/135/91 110/134/91 114/138/91 115/139/91
f 110/134/92 109/133/92 113/137/92 114/138/92
f 93/113/93 108/132/93 112/136/93 95/115/93
f 108/132/94 107/131/94 111/135/94 112/136/94
f 107/131/95 106/130/95 110/134/95 111/135/95
f 106/130/96 105/129/96 109/133/96 110/134/96
f 91/110/97 101/122/97 108/132/97 93/113/97
f 101/122/98 102/124/98 107/131/98 108/132/98
f 102/124/99 103/126/99 106/130/99 107/131/99
f 103/126/100 104/128/100 105/129/100 106/130/100
