# Blender v3.0.1 OBJ File: 'ground_tile.blend'
# www.blender.org
mtllib tile_chasm_primitive_4c.mtl
o Grid.002
v -6.928000 0.000002 -4.000000
v -6.928000 0.000002 -3.111111
v -6.158222 0.000002 -4.000000
v 6.928000 0.000002 -4.000000
v 6.158222 0.000002 -4.000000
v 6.928000 0.000002 -3.111111
v 6.928000 -0.000002 4.000000
v 6.158222 -0.000002 4.000000
v 0.769778 -0.000002 4.000000
v 0.000000 -0.000002 4.000000
v 2.309333 -0.000002 4.000000
v 1.539556 -0.000002 4.000000
v 3.848889 -0.000002 4.000000
v 3.079111 -0.000002 4.000000
v 5.388444 -0.000002 4.000000
v 4.618667 -0.000002 3.999999
v 6.928000 -0.000002 3.111111
v 6.928000 -0.000000 2.222222
v 6.928000 -0.000000 1.333333
v 6.928000 -0.000000 0.444444
v 6.928000 0.000000 -0.444445
v 6.928000 0.000000 -1.333333
v 6.928000 0.000000 -2.222222
v 5.388444 0.000002 -4.000000
v 0.769778 0.000002 -4.000000
v 0.000000 0.000002 -4.000000
v 2.309333 0.000002 -4.000000
v 1.539556 0.000002 -4.000000
v 3.848889 0.000002 -4.000000
v 3.079111 0.000002 -4.000000
v 4.618667 0.000002 -4.000000
v -0.769778 0.000002 -4.000000
v -2.309333 0.000002 -4.000000
v -1.539556 0.000002 -4.000000
v -3.848889 0.000002 -4.000000
v -3.079111 0.000002 -4.000000
v -5.388444 0.000002 -4.000000
v -4.618667 0.000002 -4.000000
v -6.928000 0.000000 -2.222222
v -6.928000 0.000000 -1.333333
v -6.928000 0.000000 -0.444445
v -6.928000 -0.000000 0.444444
v -6.928000 -0.000000 1.333333
v -6.928000 -0.000000 2.222222
v -6.928000 -0.000002 3.111111
v -6.928000 -0.000002 4.000000
v -6.158222 -0.000002 4.000000
v -5.388444 -0.000002 4.000000
v -4.618667 -0.000002 4.000000
v -3.848889 -0.000002 4.000000
v -3.079111 -0.000002 4.000000
v -2.309333 -0.000002 4.000000
v -1.539556 -0.000002 4.000000
v -0.769778 -0.000002 4.000000
v -6.928000 5.000001 -4.000000
v -6.928000 5.000001 -3.111111
v -6.158222 5.000001 -4.000000
v 6.928000 4.999999 4.000000
v 6.158222 4.999999 4.000000
v 3.848889 4.999999 4.000000
v 4.618667 4.999999 3.999999
v 6.928000 4.999999 3.111111
v 6.928000 5.000000 0.444444
v 6.928000 5.000000 -0.444445
v 2.309333 5.000001 -4.000000
v 1.539556 5.000001 -4.000000
v 3.079111 5.000001 -4.000000
v -5.388444 5.000001 -4.000000
v -4.618667 5.000001 -4.000000
v -6.928000 5.000000 1.333333
v -6.928000 5.000000 2.222222
v -6.928000 4.999999 3.111111
v -0.769778 4.999999 4.000000
v 5.388444 4.999999 4.000000
v 0.769778 5.000001 -4.000000
v -6.928000 5.000000 -2.222222
v -6.928000 4.999999 4.000000
v -3.079111 4.999999 4.000000
v -2.309333 4.999999 4.000000
v 6.928000 5.000000 -1.333333
v 5.388444 5.000001 -4.000000
v 0.000000 5.000001 -4.000000
v 3.848889 5.000001 -4.000000
v 4.618667 5.000001 -4.000000
v -0.769778 5.000001 -4.000000
v -3.848889 5.000001 -4.000000
v -3.079111 5.000001 -4.000000
v -6.158222 4.999999 4.000000
v -5.388444 4.999999 4.000000
v 0.769778 4.999999 4.000000
v 0.000000 4.999999 4.000000
v 1.539556 4.999999 4.000000
v 3.079111 4.999999 4.000000
v 6.928000 5.000000 2.222222
v -6.928000 5.000000 -1.333333
v -2.309333 5.000001 -4.000000
v 6.928000 5.000001 -4.000000
v 6.158222 5.000001 -4.000000
v 6.928000 5.000001 -3.111111
v 6.928000 5.000000 1.333333
v 6.928000 5.000000 -2.222222
v -6.928000 5.000000 -0.444445
v -4.618667 4.999999 4.000000
v -1.539556 4.999999 4.000000
v -1.539556 5.000001 -4.000000
v -6.928000 5.000000 0.444444
v -3.848889 4.999999 4.000000
v 2.309333 4.999999 4.000000
vt 0.000000 0.000000
vt 0.000000 0.000000
vt 0.000000 0.000000
vt 0.000000 0.000000
vt 0.000000 0.000000
vt 0.000000 0.000000
vt 0.000000 0.000000
vt 0.000000 0.000000
vt 0.000000 0.000000
vt 0.000000 0.000000
vt 0.000000 0.000000
vt 0.000000 0.000000
vt 0.000000 0.000000
vt 0.000000 0.000000
vt 0.000000 0.000000
vt 0.000000 0.000000
vt 0.000000 0.000000
vt 0.000000 0.000000
vt 0.000000 0.000000
vt 0.000000 0.000000
vt 0.000000 0.000000
vt 0.000000 0.000000
vt 0.000000 0.000000
vt 0.000000 0.000000
vt 0.000000 0.000000
vt 0.000000 0.000000
vt 0.000000 0.000000
vt 0.000000 0.000000
vt 0.000000 0.000000
vt 0.000000 0.000000
vt 0.000000 0.000000
vt 0.000000 0.000000
vt 0.000000 0.000000
vt 0.000000 0.000000
vt 0.000000 0.000000
vt 0.000000 0.000000
vt 0.000000 0.000000
vt 0.000000 0.000000
vt 0.000000 0.000000
vt 0.000000 0.000000
vt 0.000000 0.000000
vt 0.000000 0.000000
vt 0.000000 0.000000
vt 0.000000 0.000000
vt 0.000000 0.000000
vt 0.000000 0.000000
vt 0.000000 0.000000
vt 0.000000 0.000000
vt 0.000000 0.000000
vt 0.000000 0.000000
vt 0.000000 0.000000
vt 0.000000 0.000000
vt 0.000000 0.000000
vt 0.000000 0.000000
vt 0.000000 0.000000
vt 0.000000 0.000000
vt 0.000000 0.000000
vt 0.000000 0.000000
vt 0.000000 0.000000
vt 0.000000 0.000000
vt 0.000000 0.000000
vt 0.000000 0.000000
vt 0.000000 0.000000
vt 0.000000 0.000000
vt 0.000000 0.000000
vt 0.000000 0.000000
vt 0.000000 0.000000
vt 0.000000 0.000000
vt 0.000000 0.000000
vt 0.000000 0.000000
vt 0.000000 0.000000
vt 0.000000 0.000000
vt 0.000000 0.000000
vt 0.000000 0.000000
vt 0.000000 0.000000
vt 0.000000 0.000000
vt 0.000000 0.000000
vt 0.000000 0.000000
vt 0.000000 0.000000
vt 0.000000 0.000000
vt 0.000000 0.000000
vt 0.000000 0.000000
vt 0.000000 0.000000
vt 0.000000 0.000000
vt 0.000000 0.000000
vt 0.000000 0.000000
vt 0.000000 0.000000
vt 0.000000 0.000000
vt 0.000000 0.000000
vt 0.000000 0.000000
vt 0.000000 0.000000
vt 0.000000 0.000000
vt 0.000000 0.000000
vt 0.000000 0.000000
vt 0.000000 0.000000
vt 0.000000 0.000000
vt 0.000000 0.000000
vt 0.000000 0.000000
vt 0.000000 0.000000
vt 0.000000 0.000000
vt 0.000000 0.000000
vt 0.000000 0.000000
vt 0.000000 0.000000
vt 0.000000 0.000000
vt 0.000000 0.000000
vt 0.000000 0.000000
vt 0.000000 0.000000
vt 0.000000 0.000000
vn 0.0000 0.0000 -1.0000
vn -1.0000 0.0000 0.0000
vn 1.0000 0.0000 0.0000
vn -0.7071 0.0000 0.7071
vn 0.0000 0.0000 1.0000
vn -0.7071 0.0000 -0.7071
vn 0.7071 0.0000 0.7071
vn 0.7071 0.0000 -0.7071
usemtl None.001
s 1
f 35/1/1 38/2/1 69/3/1 86/4/1
f 2/5/2 39/6/2 76/7/2 56/8/2
f 19/9/3 20/10/3 63/11/3 100/12/3
f 18/13/3 19/9/3 100/12/3 94/14/3
f 25/15/1 26/16/1 82/17/1 75/18/1
f 45/19/2 46/20/4 77/21/4 72/22/2
f 41/23/2 42/24/2 106/25/2 102/26/2
f 28/27/1 25/15/1 75/18/1 66/28/1
f 10/29/5 9/30/5 90/31/5 91/32/5
f 1/33/6 2/5/2 56/8/2 55/34/6
f 22/35/3 23/36/3 101/37/3 80/38/3
f 51/39/5 52/40/5 79/41/5 78/42/5
f 49/43/5 50/44/5 107/45/5 103/46/5
f 32/47/1 34/48/1 105/49/1 85/50/1
f 9/30/5 12/51/5 92/52/5 90/31/5
f 3/53/1 1/33/6 55/34/6 57/54/1
f 39/6/2 40/55/2 95/56/2 76/7/2
f 47/57/5 48/58/5 89/59/5 88/60/5
f 8/61/5 7/62/7 58/63/7 59/64/5
f 14/65/5 13/66/5 60/67/5 93/68/5
f 43/69/2 44/70/2 71/71/2 70/72/2
f 44/70/2 45/19/2 72/22/2 71/71/2
f 33/73/1 36/74/1 87/75/1 96/76/1
f 54/77/5 10/29/5 91/32/5 73/78/5
f 27/79/1 28/27/1 66/28/1 65/80/1
f 50/44/5 51/39/5 78/42/5 107/45/5
f 13/66/5 16/81/5 61/82/5 60/67/5
f 23/36/3 6/83/3 99/84/3 101/37/3
f 30/85/1 27/79/1 65/80/1 67/86/1
f 37/87/1 3/53/1 57/54/1 68/88/1
f 17/89/3 18/13/3 94/14/3 62/90/3
f 15/91/5 8/61/5 59/64/5 74/92/5
f 12/51/5 11/93/5 108/94/5 92/52/5
f 38/2/1 37/87/1 68/88/1 69/3/1
f 4/95/8 5/96/1 98/97/1 97/98/8
f 40/55/2 41/23/2 102/26/2 95/56/2
f 29/99/1 30/85/1 67/86/1 83/100/1
f 53/101/5 54/77/5 73/78/5 104/102/5
f 7/62/7 17/89/3 62/90/3 58/63/7
f 16/81/5 15/91/5 74/92/5 61/82/5
f 11/93/5 14/65/5 93/68/5 108/94/5
f 48/58/5 49/43/5 103/46/5 89/59/5
f 31/103/1 29/99/1 83/100/1 84/104/1
f 6/83/3 4/95/8 97/98/8 99/84/3
f 20/10/3 21/105/3 64/106/3 63/11/3
f 46/20/4 47/57/5 88/60/5 77/21/4
f 42/24/2 43/69/2 70/72/2 106/25/2
f 36/74/1 35/1/1 86/4/1 87/75/1
f 26/16/1 32/47/1 85/50/1 82/17/1
f 21/105/3 22/35/3 80/38/3 64/106/3
f 52/40/5 53/101/5 104/102/5 79/41/5
f 24/107/1 31/103/1 84/104/1 81/108/1
f 34/48/1 33/73/1 96/76/1 105/49/1
f 5/96/1 24/107/1 81/108/1 98/97/1
