# Blender v3.0.1 OBJ File: 'ground_tile.blend'
# www.blender.org
mtllib tile_ground_4c.mtl
o Grid.001
v -6.928000 0.000001 -4.000000
v -6.928000 0.000001 -3.111111
v -6.158222 0.000001 -3.555556
v -6.158222 0.000001 -4.000000
v 6.928000 0.000001 -4.000000
v 6.158222 0.000001 -4.000000
v 6.158222 0.000001 -3.555556
v 6.928000 0.000001 -3.111111
v 6.928000 -0.000001 4.000000
v 6.158222 -0.000001 3.555556
v 6.158222 -0.000001 4.000000
v 4.618667 -0.000001 3.999999
v 5.388444 -0.000001 4.000000
v 0.000000 -0.000001 4.000000
v 1.539556 -0.000001 4.000000
v 0.769778 -0.000001 4.000000
v 0.000000 -0.000001 3.555556
v 3.079111 -0.000001 4.000000
v 2.309333 -0.000001 4.000000
v 1.539556 -0.000001 3.555556
v 0.769778 -0.000001 3.111111
v 0.000000 -0.000000 2.666667
v 3.848889 -0.000001 4.000000
v 3.079111 -0.000001 3.555555
v 2.309333 -0.000001 3.111111
v 1.539556 -0.000000 2.666667
v 0.769778 -0.000000 2.222222
v 0.000000 -0.000000 1.777778
v 4.618667 -0.000001 3.555556
v 3.848889 -0.000001 3.111111
v 3.079111 -0.000000 2.666667
v 2.309333 -0.000000 2.222222
v 1.539556 -0.000000 1.777778
v 0.769778 -0.000000 1.333333
v 0.000000 -0.000000 0.888889
v 5.388444 -0.000001 3.111111
v 4.618667 -0.000000 2.666667
v 3.848889 -0.000000 2.222222
v 3.079111 -0.000000 1.777778
v 2.309333 -0.000000 1.333333
v 1.539556 -0.000000 0.888889
v 0.769778 -0.000000 0.444444
v 0.000000 0.000000 0.000000
v 6.928000 -0.000001 3.111111
v 6.928000 -0.000000 2.222222
v 6.158222 -0.000000 2.666667
v 6.928000 -0.000000 1.333333
v 6.158222 -0.000000 1.777778
v 6.928000 -0.000000 0.444444
v 6.158222 -0.000000 0.888889
v 6.928000 0.000000 -0.444445
v 6.158222 0.000000 0.000000
v 6.928000 0.000000 -1.333333
v 6.158222 0.000000 -0.888889
v 6.928000 0.000000 -2.222222
v 6.158222 0.000000 -1.777778
v 6.158222 0.000000 -2.666667
v 5.388444 -0.000000 2.222222
v 5.388444 -0.000000 1.333333
v 4.618667 -0.000000 1.777778
v 5.388444 -0.000000 0.444444
v 4.618667 -0.000000 0.888889
v 3.848889 -0.000000 1.333333
v 5.388444 0.000000 -0.444444
v 4.618667 0.000000 0.000000
v 3.848889 -0.000000 0.444445
v 3.079111 -0.000000 0.888889
v 5.388444 0.000000 -1.333333
v 4.618667 0.000000 -0.888889
v 3.848889 0.000000 -0.444444
v 3.079111 0.000000 0.000000
v 2.309333 -0.000000 0.444445
v 5.388444 0.000000 -2.222222
v 4.618667 0.000000 -1.777778
v 3.848889 0.000000 -1.333333
v 3.079111 0.000000 -0.888889
v 2.309333 0.000000 -0.444445
v 1.539556 0.000000 0.000000
v 5.388444 0.000001 -3.111111
v 4.618667 0.000000 -2.666667
v 3.848889 0.000000 -2.222222
v 3.079111 0.000000 -1.777778
v 2.309333 0.000000 -1.333333
v 1.539556 0.000000 -0.888889
v 0.769778 0.000000 -0.444444
v 0.000000 0.000000 -0.888889
v 0.769778 0.000000 -1.333333
v 1.539556 0.000000 -1.777778
v 2.309333 0.000000 -2.222222
v 3.079111 0.000000 -2.666667
v 3.848889 0.000001 -3.111111
v 4.618667 0.000001 -3.555556
v 5.388444 0.000001 -4.000000
v 0.000000 0.000000 -1.777778
v 0.769778 0.000000 -2.222223
v 0.000000 0.000000 -2.666667
v 1.539556 0.000000 -2.666667
v 0.769778 0.000001 -3.111111
v 0.000000 0.000001 -3.555556
v 2.309333 0.000001 -3.111111
v 1.539556 0.000001 -3.555556
v 0.769778 0.000001 -4.000000
v 0.000000 0.000001 -4.000000
v 3.079111 0.000001 -3.555556
v 2.309333 0.000001 -4.000000
v 1.539556 0.000001 -4.000000
v 3.848889 0.000001 -4.000000
v 3.079111 0.000001 -4.000000
v 4.618667 0.000001 -4.000000
v -4.618667 0.000001 -4.000000
v -5.388444 0.000001 -4.000000
v -1.539556 0.000001 -4.000000
v -0.769778 0.000001 -4.000000
v -3.079111 0.000001 -4.000000
v -2.309333 0.000001 -4.000000
v -1.539556 0.000001 -3.555556
v -0.769778 0.000001 -3.111111
v -3.848889 0.000001 -4.000000
v -3.079111 0.000001 -3.555556
v -2.309333 0.000001 -3.111111
v -1.539556 0.000000 -2.666667
v -0.769778 0.000000 -2.222222
v -4.618667 0.000001 -3.555556
v -3.848889 0.000001 -3.111111
v -3.079111 0.000000 -2.666667
v -2.309333 0.000000 -2.222222
v -1.539556 0.000000 -1.777778
v -0.769778 0.000000 -1.333333
v -5.388444 0.000001 -3.111111
v -4.618667 0.000000 -2.666667
v -3.848889 0.000000 -2.222222
v -3.079111 0.000000 -1.777778
v -2.309333 0.000000 -1.333333
v -1.539556 0.000000 -0.888889
v -0.769778 0.000000 -0.444444
v -0.769778 -0.000000 0.444444
v -1.539556 0.000000 0.000000
v -2.309333 0.000000 -0.444444
v -3.079111 0.000000 -0.888889
v -3.848889 0.000000 -1.333333
v -4.618667 0.000000 -1.777778
v -5.388444 0.000000 -2.222222
v -6.158222 0.000000 -2.666667
v -1.539556 -0.000000 0.888889
v -2.309333 -0.000000 0.444445
v -2.309333 -0.000000 1.333333
v -3.079111 0.000000 0.000000
v -3.079111 -0.000000 0.888889
v -3.079111 -0.000000 1.777778
v -3.848889 0.000000 -0.444444
v -3.848889 -0.000000 0.444445
v -3.848889 -0.000000 1.333333
v -3.848889 -0.000000 2.222222
v -4.618667 0.000000 -0.888889
v -4.618667 0.000000 0.000000
v -4.618667 -0.000000 0.888889
v -4.618667 -0.000000 1.777778
v -4.618667 -0.000000 2.666667
v -5.388444 0.000000 -1.333333
v -5.388444 0.000000 -0.444444
v -5.388444 -0.000000 0.444444
v -5.388444 -0.000000 1.333333
v -5.388444 -0.000000 2.222222
v -5.388444 -0.000001 3.111111
v -6.158222 0.000000 -1.777778
v -6.158222 0.000000 -0.888889
v -6.158222 0.000000 0.000000
v -6.158222 -0.000000 0.888889
v -6.158222 -0.000000 1.777778
v -6.158222 -0.000000 2.666667
v -6.158222 -0.000001 3.555556
v -6.928000 0.000000 -2.222222
v -6.928000 0.000000 -1.333333
v -6.928000 0.000000 -0.444445
v -6.928000 -0.000000 0.444444
v -6.928000 -0.000000 1.333333
v -6.928000 -0.000000 2.222222
v -6.928000 -0.000001 3.111111
v -6.928000 -0.000001 4.000000
v -6.158222 -0.000001 4.000000
v -5.388444 -0.000001 4.000000
v -4.618667 -0.000001 4.000000
v -4.618667 -0.000001 3.555556
v -3.848889 -0.000001 4.000000
v -3.848889 -0.000001 3.111111
v -3.079111 -0.000001 4.000000
v -3.079111 -0.000001 3.555556
v -3.079111 -0.000000 2.666667
v -2.309333 -0.000001 4.000000
v -2.309333 -0.000001 3.111111
v -2.309333 -0.000000 2.222222
v -1.539556 -0.000001 4.000000
v -1.539556 -0.000001 3.555556
v -1.539556 -0.000000 2.666667
v -1.539556 -0.000000 1.777778
v -0.769778 -0.000001 4.000000
v -0.769778 -0.000001 3.111111
v -0.769778 -0.000000 2.222222
v -0.769778 -0.000000 1.333333
vt 0.000000 0.000000
vt 0.000000 0.000000
vt 0.000000 0.000000
vt 0.000000 0.000000
vt 0.000000 0.000000
vt 0.000000 0.000000
vt 0.000000 0.000000
vt 0.000000 0.000000
vt 0.000000 0.000000
vt 0.000000 0.000000
vt 0.000000 0.000000
vt 0.000000 0.000000
vt 0.000000 0.000000
vt 0.000000 0.000000
vt 0.000000 0.000000
vt 0.000000 0.000000
vt 0.000000 0.000000
vt 0.000000 0.000000
vt 0.000000 0.000000
vt 0.000000 0.000000
vt 0.000000 0.000000
vt 0.000000 0.000000
vt 0.000000 0.000000
vt 0.000000 0.000000
vt 0.000000 0.000000
vt 0.000000 0.000000
vt 0.000000 0.000000
vt 0.000000 0.000000
vt 0.000000 0.000000
vt 0.000000 0.000000
vt 0.000000 0.000000
vt 0.000000 0.000000
vt 0.000000 0.000000
vt 0.000000 0.000000
vt 0.000000 0.000000
vt 0.000000 0.000000
vt 0.000000 0.000000
vt 0.000000 0.000000
vt 0.000000 0.000000
vt 0.000000 0.000000
vt 0.000000 0.000000
vt 0.000000 0.000000
vt 0.000000 0.000000
vt 0.000000 0.000000
vt 0.000000 0.000000
vt 0.000000 0.000000
vt 0.000000 0.000000
vt 0.000000 0.000000
vt 0.000000 0.000000
vt 0.000000 0.000000
vt 0.000000 0.000000
vt 0.000000 0.000000
vt 0.000000 0.000000
vt 0.000000 0.000000
vt 0.000000 0.000000
vt 0.000000 0.000000
vt 0.000000 0.000000
vt 0.000000 0.000000
vt 0.000000 0.000000
vt 0.000000 0.000000
vt 0.000000 0.000000
vt 0.000000 0.000000
vt 0.000000 0.000000
vt 0.000000 0.000000
vt 0.000000 0.000000
vt 0.000000 0.000000
vt 0.000000 0.000000
vt 0.000000 0.000000
vt 0.000000 0.000000
vt 0.000000 0.000000
vt 0.000000 0.000000
vt 0.000000 0.000000
vt 0.000000 0.000000
vt 0.000000 0.000000
vt 0.000000 0.000000
vt 0.000000 0.000000
vt 0.000000 0.000000
vt 0.000000 0.000000
vt 0.000000 0.000000
vt 0.000000 0.000000
vt 0.000000 0.000000
vt 0.000000 0.000000
vt 0.000000 0.000000
vt 0.000000 0.000000
vt 0.000000 0.000000
vt 0.000000 0.000000
vt 0.000000 0.000000
vt 0.000000 0.000000
vt 0.000000 0.000000
vt 0.000000 0.000000
vt 0.000000 0.000000
vt 0.000000 0.000000
vt 0.000000 0.000000
vt 0.000000 0.000000
vt 0.000000 0.000000
vt 0.000000 0.000000
vt 0.000000 0.000000
vt 0.000000 0.000000
vt 0.000000 0.000000
vt 0.000000 0.000000
vt 0.000000 0.000000
vt 0.000000 0.000000
vt 0.000000 0.000000
vt 0.000000 0.000000
vt 0.000000 0.000000
vt 0.000000 0.000000
vt 0.000000 0.000000
vt 0.000000 0.000000
vt 0.000000 0.000000
vt 0.000000 0.000000
vt 0.000000 0.000000
vt 0.000000 0.000000
vt 0.000000 0.000000
vt 0.000000 0.000000
vt 0.000000 0.000000
vt 0.000000 0.000000
vt 0.000000 0.000000
vt 0.000000 0.000000
vt 0.000000 0.000000
vt 0.000000 0.000000
vt 0.000000 0.000000
vt 0.000000 0.000000
vt 0.000000 0.000000
vt 0.000000 0.000000
vt 0.000000 0.000000
vt 0.000000 0.000000
vt 0.000000 0.000000
vt 0.000000 0.000000
vt 0.000000 0.000000
vt 0.000000 0.000000
vt 0.000000 0.000000
vt 0.000000 0.000000
vt 0.000000 0.000000
vt 0.000000 0.000000
vt 0.000000 0.000000
vt 0.000000 0.000000
vt 0.000000 0.000000
vt 0.000000 0.000000
vt 0.000000 0.000000
vt 0.000000 0.000000
vt 0.000000 0.000000
vt 0.000000 0.000000
vt 0.000000 0.000000
vt 0.000000 0.000000
vt 0.000000 0.000000
vt 0.000000 0.000000
vt 0.000000 0.000000
vt 0.000000 0.000000
vt 0.000000 0.000000
vt 0.000000 0.000000
vt 0.000000 0.000000
vt 0.000000 0.000000
vt 0.000000 0.000000
vt 0.000000 0.000000
vt 0.000000 0.000000
vt 0.000000 0.000000
vt 0.000000 0.000000
vt 0.000000 0.000000
vt 0.000000 0.000000
vt 0.000000 0.000000
vt 0.000000 0.000000
vt 0.000000 0.000000
vt 0.000000 0.000000
vt 0.000000 0.000000
vt 0.000000 0.000000
vt 0.000000 0.000000
vt 0.000000 0.000000
vt 0.000000 0.000000
vt 0.000000 0.000000
vt 0.000000 0.000000
vt 0.000000 0.000000
vt 0.000000 0.000000
vt 0.000000 0.000000
vt 0.000000 0.000000
vt 0.000000 0.000000
vt 0.000000 0.000000
vt 0.000000 0.000000
vt 0.000000 0.000000
vt 0.000000 0.000000
vt 0.000000 0.000000
vt 0.000000 0.000000
vt 0.000000 0.000000
vt 0.000000 0.000000
vt 0.000000 0.000000
vt 0.000000 0.000000
vt 0.000000 0.000000
vt 0.000000 0.000000
vt 0.000000 0.000000
vt 0.000000 0.000000
vt 0.000000 0.000000
vt 0.000000 0.000000
vt 0.000000 0.000000
vt 0.000000 0.000000
vt 0.000000 0.000000
vt 0.000000 0.000000
vt 0.000000 0.000000
vt 0.000000 0.000000
vt 0.000000 0.000000
vt 0.000000 0.000000
vn -0.0000 1.0000 0.0000
usemtl None
s 1
f 1/1/1 2/2/1 3/3/1
f 1/1/1 3/3/1 4/4/1
f 5/5/1 6/6/1 7/7/1
f 5/5/1 7/7/1 8/8/1
f 9/9/1 10/10/1 11/11/1
f 16/12/1 17/13/1 14/14/1
f 19/15/1 20/16/1 15/17/1
f 15/17/1 20/16/1 16/12/1
f 20/16/1 21/18/1 16/12/1
f 16/12/1 21/18/1 17/13/1
f 21/18/1 22/19/1 17/13/1
f 23/20/1 24/21/1 18/22/1
f 18/22/1 24/21/1 19/15/1
f 24/21/1 25/23/1 19/15/1
f 19/15/1 25/23/1 20/16/1
f 25/23/1 26/24/1 20/16/1
f 20/16/1 26/24/1 21/18/1
f 26/24/1 27/25/1 21/18/1
f 21/18/1 27/25/1 22/19/1
f 27/25/1 28/26/1 22/19/1
f 13/27/1 29/28/1 12/29/1
f 12/29/1 29/28/1 23/20/1
f 29/28/1 30/30/1 23/20/1
f 23/20/1 30/30/1 24/21/1
f 30/30/1 31/31/1 24/21/1
f 24/21/1 31/31/1 25/23/1
f 31/31/1 32/32/1 25/23/1
f 25/23/1 32/32/1 26/24/1
f 32/32/1 33/33/1 26/24/1
f 26/24/1 33/33/1 27/25/1
f 33/33/1 34/34/1 27/25/1
f 27/25/1 34/34/1 28/26/1
f 34/34/1 35/35/1 28/26/1
f 11/11/1 10/10/1 13/27/1
f 10/10/1 36/36/1 13/27/1
f 13/27/1 36/36/1 29/28/1
f 36/36/1 37/37/1 29/28/1
f 29/28/1 37/37/1 30/30/1
f 37/37/1 38/38/1 30/30/1
f 30/30/1 38/38/1 31/31/1
f 38/38/1 39/39/1 31/31/1
f 31/31/1 39/39/1 32/32/1
f 39/39/1 40/40/1 32/32/1
f 32/32/1 40/40/1 33/33/1
f 40/40/1 41/41/1 33/33/1
f 33/33/1 41/41/1 34/34/1
f 41/41/1 42/42/1 34/34/1
f 34/34/1 42/42/1 35/35/1
f 42/42/1 43/43/1 35/35/1
f 44/44/1 10/10/1 9/9/1
f 45/45/1 46/46/1 44/44/1
f 47/47/1 48/48/1 45/45/1
f 49/49/1 50/50/1 47/47/1
f 51/51/1 52/52/1 49/49/1
f 53/53/1 54/54/1 51/51/1
f 55/55/1 56/56/1 53/53/1
f 8/8/1 57/57/1 55/55/1
f 44/44/1 46/46/1 10/10/1
f 46/46/1 36/36/1 10/10/1
f 45/45/1 48/48/1 46/46/1
f 48/48/1 58/58/1 46/46/1
f 46/46/1 58/58/1 36/36/1
f 58/58/1 37/37/1 36/36/1
f 47/47/1 50/50/1 48/48/1
f 50/50/1 59/59/1 48/48/1
f 48/48/1 59/59/1 58/58/1
f 59/59/1 60/60/1 58/58/1
f 58/58/1 60/60/1 37/37/1
f 60/60/1 38/38/1 37/37/1
f 49/49/1 52/52/1 50/50/1
f 52/52/1 61/61/1 50/50/1
f 50/50/1 61/61/1 59/59/1
f 61/61/1 62/62/1 59/59/1
f 59/59/1 62/62/1 60/60/1
f 62/62/1 63/63/1 60/60/1
f 60/60/1 63/63/1 38/38/1
f 63/63/1 39/39/1 38/38/1
f 51/51/1 54/54/1 52/52/1
f 54/54/1 64/64/1 52/52/1
f 52/52/1 64/64/1 61/61/1
f 64/64/1 65/65/1 61/61/1
f 61/61/1 65/65/1 62/62/1
f 65/65/1 66/66/1 62/62/1
f 62/62/1 66/66/1 63/63/1
f 66/66/1 67/67/1 63/63/1
f 63/63/1 67/67/1 39/39/1
f 67/67/1 40/40/1 39/39/1
f 53/53/1 56/56/1 54/54/1
f 56/56/1 68/68/1 54/54/1
f 54/54/1 68/68/1 64/64/1
f 68/68/1 69/69/1 64/64/1
f 64/64/1 69/69/1 65/65/1
f 69/69/1 70/70/1 65/65/1
f 65/65/1 70/70/1 66/66/1
f 70/70/1 71/71/1 66/66/1
f 66/66/1 71/71/1 67/67/1
f 71/71/1 72/72/1 67/67/1
f 67/67/1 72/72/1 40/40/1
f 72/72/1 41/41/1 40/40/1
f 55/55/1 57/57/1 56/56/1
f 57/57/1 73/73/1 56/56/1
f 56/56/1 73/73/1 68/68/1
f 73/73/1 74/74/1 68/68/1
f 68/68/1 74/74/1 69/69/1
f 74/74/1 75/75/1 69/69/1
f 69/69/1 75/75/1 70/70/1
f 75/75/1 76/76/1 70/70/1
f 70/70/1 76/76/1 71/71/1
f 76/76/1 77/77/1 71/71/1
f 71/71/1 77/77/1 72/72/1
f 77/77/1 78/78/1 72/72/1
f 72/72/1 78/78/1 41/41/1
f 78/78/1 42/42/1 41/41/1
f 8/8/1 7/7/1 57/57/1
f 7/7/1 79/79/1 57/57/1
f 57/57/1 79/79/1 73/73/1
f 79/79/1 80/80/1 73/73/1
f 73/73/1 80/80/1 74/74/1
f 80/80/1 81/81/1 74/74/1
f 74/74/1 81/81/1 75/75/1
f 81/81/1 82/82/1 75/75/1
f 75/75/1 82/82/1 76/76/1
f 82/82/1 83/83/1 76/76/1
f 76/76/1 83/83/1 77/77/1
f 83/83/1 84/84/1 77/77/1
f 77/77/1 84/84/1 78/78/1
f 84/84/1 85/85/1 78/78/1
f 78/78/1 85/85/1 42/42/1
f 85/85/1 43/43/1 42/42/1
f 85/85/1 86/86/1 43/43/1
f 84/84/1 87/87/1 85/85/1
f 83/83/1 88/88/1 84/84/1
f 82/82/1 89/89/1 83/83/1
f 81/81/1 90/90/1 82/82/1
f 80/80/1 91/91/1 81/81/1
f 79/79/1 92/92/1 80/80/1
f 7/7/1 93/93/1 79/79/1
f 85/85/1 87/87/1 86/86/1
f 87/87/1 94/94/1 86/86/1
f 84/84/1 88/88/1 87/87/1
f 88/88/1 95/95/1 87/87/1
f 87/87/1 95/95/1 94/94/1
f 95/95/1 96/96/1 94/94/1
f 83/83/1 89/89/1 88/88/1
f 89/89/1 97/97/1 88/88/1
f 88/88/1 97/97/1 95/95/1
f 97/97/1 98/98/1 95/95/1
f 95/95/1 98/98/1 96/96/1
f 98/98/1 99/99/1 96/96/1
f 82/82/1 90/90/1 89/89/1
f 90/90/1 100/100/1 89/89/1
f 89/89/1 100/100/1 97/97/1
f 100/100/1 101/101/1 97/97/1
f 97/97/1 101/101/1 98/98/1
f 101/101/1 102/102/1 98/98/1
f 98/98/1 102/102/1 99/99/1
f 102/102/1 103/103/1 99/99/1
f 81/81/1 91/91/1 90/90/1
f 91/91/1 104/104/1 90/90/1
f 90/90/1 104/104/1 100/100/1
f 104/104/1 105/105/1 100/100/1
f 100/100/1 105/105/1 101/101/1
f 105/105/1 106/106/1 101/101/1
f 101/101/1 106/106/1 102/102/1
f 80/80/1 92/92/1 91/91/1
f 92/92/1 107/107/1 91/91/1
f 91/91/1 107/107/1 104/104/1
f 107/107/1 108/108/1 104/104/1
f 104/104/1 108/108/1 105/105/1
f 79/79/1 93/93/1 92/92/1
f 93/93/1 109/109/1 92/92/1
f 92/92/1 109/109/1 107/107/1
f 7/7/1 6/6/1 93/93/1
f 113/110/1 99/99/1 103/103/1
f 115/111/1 116/112/1 112/113/1
f 112/113/1 116/112/1 113/110/1
f 116/112/1 117/114/1 113/110/1
f 113/110/1 117/114/1 99/99/1
f 117/114/1 96/96/1 99/99/1
f 118/115/1 119/116/1 114/117/1
f 114/117/1 119/116/1 115/111/1
f 119/116/1 120/118/1 115/111/1
f 115/111/1 120/118/1 116/112/1
f 120/118/1 121/119/1 116/112/1
f 116/112/1 121/119/1 117/114/1
f 121/119/1 122/120/1 117/114/1
f 117/114/1 122/120/1 96/96/1
f 122/120/1 94/94/1 96/96/1
f 111/121/1 123/122/1 110/123/1
f 110/123/1 123/122/1 118/115/1
f 123/122/1 124/124/1 118/115/1
f 118/115/1 124/124/1 119/116/1
f 124/124/1 125/125/1 119/116/1
f 119/116/1 125/125/1 120/118/1
f 125/125/1 126/126/1 120/118/1
f 120/118/1 126/126/1 121/119/1
f 126/126/1 127/127/1 121/119/1
f 121/119/1 127/127/1 122/120/1
f 127/127/1 128/128/1 122/120/1
f 122/120/1 128/128/1 94/94/1
f 128/128/1 86/86/1 94/94/1
f 4/4/1 3/3/1 111/121/1
f 3/3/1 129/129/1 111/121/1
f 111/121/1 129/129/1 123/122/1
f 129/129/1 130/130/1 123/122/1
f 123/122/1 130/130/1 124/124/1
f 130/130/1 131/131/1 124/124/1
f 124/124/1 131/131/1 125/125/1
f 131/131/1 132/132/1 125/125/1
f 125/125/1 132/132/1 126/126/1
f 132/132/1 133/133/1 126/126/1
f 126/126/1 133/133/1 127/127/1
f 133/133/1 134/134/1 127/127/1
f 127/127/1 134/134/1 128/128/1
f 134/134/1 135/135/1 128/128/1
f 128/128/1 135/135/1 86/86/1
f 135/135/1 43/43/1 86/86/1
f 135/135/1 136/136/1 43/43/1
f 134/134/1 137/137/1 135/135/1
f 133/133/1 138/138/1 134/134/1
f 132/132/1 139/139/1 133/133/1
f 131/131/1 140/140/1 132/132/1
f 130/130/1 141/141/1 131/131/1
f 129/129/1 142/142/1 130/130/1
f 3/3/1 143/143/1 129/129/1
f 135/135/1 137/137/1 136/136/1
f 137/137/1 144/144/1 136/136/1
f 134/134/1 138/138/1 137/137/1
f 138/138/1 145/145/1 137/137/1
f 137/137/1 145/145/1 144/144/1
f 145/145/1 146/146/1 144/144/1
f 133/133/1 139/139/1 138/138/1
f 139/139/1 147/147/1 138/138/1
f 138/138/1 147/147/1 145/145/1
f 147/147/1 148/148/1 145/145/1
f 145/145/1 148/148/1 146/146/1
f 148/148/1 149/149/1 146/146/1
f 132/132/1 140/140/1 139/139/1
f 140/140/1 150/150/1 139/139/1
f 139/139/1 150/150/1 147/147/1
f 150/150/1 151/151/1 147/147/1
f 147/147/1 151/151/1 148/148/1
f 151/151/1 152/152/1 148/148/1
f 148/148/1 152/152/1 149/149/1
f 152/152/1 153/153/1 149/149/1
f 131/131/1 141/141/1 140/140/1
f 141/141/1 154/154/1 140/140/1
f 140/140/1 154/154/1 150/150/1
f 154/154/1 155/155/1 150/150/1
f 150/150/1 155/155/1 151/151/1
f 155/155/1 156/156/1 151/151/1
f 151/151/1 156/156/1 152/152/1
f 156/156/1 157/157/1 152/152/1
f 152/152/1 157/157/1 153/153/1
f 157/157/1 158/158/1 153/153/1
f 130/130/1 142/142/1 141/141/1
f 142/142/1 159/159/1 141/141/1
f 141/141/1 159/159/1 154/154/1
f 159/159/1 160/160/1 154/154/1
f 154/154/1 160/160/1 155/155/1
f 160/160/1 161/161/1 155/155/1
f 155/155/1 161/161/1 156/156/1
f 161/161/1 162/162/1 156/156/1
f 156/156/1 162/162/1 157/157/1
f 162/162/1 163/163/1 157/157/1
f 157/157/1 163/163/1 158/158/1
f 163/163/1 164/164/1 158/158/1
f 129/129/1 143/143/1 142/142/1
f 143/143/1 165/165/1 142/142/1
f 142/142/1 165/165/1 159/159/1
f 165/165/1 166/166/1 159/159/1
f 159/159/1 166/166/1 160/160/1
f 166/166/1 167/167/1 160/160/1
f 160/160/1 167/167/1 161/161/1
f 167/167/1 168/168/1 161/161/1
f 161/161/1 168/168/1 162/162/1
f 168/168/1 169/169/1 162/162/1
f 162/162/1 169/169/1 163/163/1
f 169/169/1 170/170/1 163/163/1
f 163/163/1 170/170/1 164/164/1
f 170/170/1 171/171/1 164/164/1
f 3/3/1 2/2/1 143/143/1
f 2/2/1 172/172/1 143/143/1
f 143/143/1 172/172/1 165/165/1
f 172/172/1 173/173/1 165/165/1
f 165/165/1 173/173/1 166/166/1
f 173/173/1 174/174/1 166/166/1
f 166/166/1 174/174/1 167/167/1
f 174/174/1 175/175/1 167/167/1
f 167/167/1 175/175/1 168/168/1
f 175/175/1 176/176/1 168/168/1
f 168/168/1 176/176/1 169/169/1
f 176/176/1 177/177/1 169/169/1
f 169/169/1 177/177/1 170/170/1
f 177/177/1 178/178/1 170/170/1
f 170/170/1 178/178/1 171/171/1
f 178/178/1 179/179/1 171/171/1
f 180/180/1 171/171/1 179/179/1
f 180/180/1 181/181/1 171/171/1
f 181/181/1 164/164/1 171/171/1
f 182/182/1 183/183/1 181/181/1
f 181/181/1 183/183/1 164/164/1
f 183/183/1 158/158/1 164/164/1
f 182/182/1 184/184/1 183/183/1
f 184/184/1 185/185/1 183/183/1
f 183/183/1 185/185/1 158/158/1
f 185/185/1 153/153/1 158/158/1
f 186/186/1 187/187/1 184/184/1
f 184/184/1 187/187/1 185/185/1
f 187/187/1 188/188/1 185/185/1
f 185/185/1 188/188/1 153/153/1
f 188/188/1 149/149/1 153/153/1
f 186/186/1 189/189/1 187/187/1
f 189/189/1 190/190/1 187/187/1
f 187/187/1 190/190/1 188/188/1
f 190/190/1 191/191/1 188/188/1
f 188/188/1 191/191/1 149/149/1
f 191/191/1 146/146/1 149/149/1
f 192/192/1 193/193/1 189/189/1
f 189/189/1 193/193/1 190/190/1
f 193/193/1 194/194/1 190/190/1
f 190/190/1 194/194/1 191/191/1
f 194/194/1 195/195/1 191/191/1
f 191/191/1 195/195/1 146/146/1
f 195/195/1 144/144/1 146/146/1
f 192/192/1 196/196/1 193/193/1
f 196/196/1 197/197/1 193/193/1
f 193/193/1 197/197/1 194/194/1
f 197/197/1 198/198/1 194/194/1
f 194/194/1 198/198/1 195/195/1
f 198/198/1 199/199/1 195/195/1
f 195/195/1 199/199/1 144/144/1
f 199/199/1 136/136/1 144/144/1
f 14/14/1 17/13/1 196/196/1
f 196/196/1 17/13/1 197/197/1
f 17/13/1 22/19/1 197/197/1
f 197/197/1 22/19/1 198/198/1
f 22/19/1 28/26/1 198/198/1
f 198/198/1 28/26/1 199/199/1
f 28/26/1 35/35/1 199/199/1
f 199/199/1 35/35/1 136/136/1
f 35/35/1 43/43/1 136/136/1
